%TF.GenerationSoftware,KiCad,Pcbnew,8.0.7*%
%TF.CreationDate,2025-01-16T05:51:54+01:00*%
%TF.ProjectId,RP2040Micro,52503230-3430-44d6-9963-726f2e6b6963,rev?*%
%TF.SameCoordinates,Original*%
%TF.FileFunction,Legend,Top*%
%TF.FilePolarity,Positive*%
%FSLAX46Y46*%
G04 Gerber Fmt 4.6, Leading zero omitted, Abs format (unit mm)*
G04 Created by KiCad (PCBNEW 8.0.7) date 2025-01-16 05:51:54*
%MOMM*%
%LPD*%
G01*
G04 APERTURE LIST*
G04 Aperture macros list*
%AMRoundRect*
0 Rectangle with rounded corners*
0 $1 Rounding radius*
0 $2 $3 $4 $5 $6 $7 $8 $9 X,Y pos of 4 corners*
0 Add a 4 corners polygon primitive as box body*
4,1,4,$2,$3,$4,$5,$6,$7,$8,$9,$2,$3,0*
0 Add four circle primitives for the rounded corners*
1,1,$1+$1,$2,$3*
1,1,$1+$1,$4,$5*
1,1,$1+$1,$6,$7*
1,1,$1+$1,$8,$9*
0 Add four rect primitives between the rounded corners*
20,1,$1+$1,$2,$3,$4,$5,0*
20,1,$1+$1,$4,$5,$6,$7,0*
20,1,$1+$1,$6,$7,$8,$9,0*
20,1,$1+$1,$8,$9,$2,$3,0*%
%AMFreePoly0*
4,1,9,3.862500,-0.866500,0.737500,-0.866500,0.737500,-0.450000,-0.737500,-0.450000,-0.737500,0.450000,0.737500,0.450000,0.737500,0.866500,3.862500,0.866500,3.862500,-0.866500,3.862500,-0.866500,$1*%
G04 Aperture macros list end*
%ADD10C,0.153000*%
%ADD11C,0.120000*%
%ADD12C,0.127000*%
%ADD13C,0.300000*%
%ADD14RoundRect,0.140000X-0.170000X0.140000X-0.170000X-0.140000X0.170000X-0.140000X0.170000X0.140000X0*%
%ADD15RoundRect,0.135000X0.135000X0.185000X-0.135000X0.185000X-0.135000X-0.185000X0.135000X-0.185000X0*%
%ADD16RoundRect,0.140000X0.140000X0.170000X-0.140000X0.170000X-0.140000X-0.170000X0.140000X-0.170000X0*%
%ADD17RoundRect,0.225000X0.375000X-0.225000X0.375000X0.225000X-0.375000X0.225000X-0.375000X-0.225000X0*%
%ADD18RoundRect,0.140000X-0.140000X-0.170000X0.140000X-0.170000X0.140000X0.170000X-0.140000X0.170000X0*%
%ADD19R,1.400000X1.200000*%
%ADD20RoundRect,0.140000X0.170000X-0.140000X0.170000X0.140000X-0.170000X0.140000X-0.170000X-0.140000X0*%
%ADD21RoundRect,0.225000X0.425000X0.225000X-0.425000X0.225000X-0.425000X-0.225000X0.425000X-0.225000X0*%
%ADD22FreePoly0,180.000000*%
%ADD23RoundRect,0.050000X-0.050000X0.330000X-0.050000X-0.330000X0.050000X-0.330000X0.050000X0.330000X0*%
%ADD24RoundRect,0.050000X0.330000X0.050000X-0.330000X0.050000X-0.330000X-0.050000X0.330000X-0.050000X0*%
%ADD25RoundRect,0.102000X-0.787400X0.787400X-0.787400X-0.787400X0.787400X-0.787400X0.787400X0.787400X0*%
%ADD26C,1.778800*%
%ADD27RoundRect,0.102000X0.675000X-0.200000X0.675000X0.200000X-0.675000X0.200000X-0.675000X-0.200000X0*%
%ADD28RoundRect,0.102000X0.800000X-1.050000X0.800000X1.050000X-0.800000X1.050000X-0.800000X-1.050000X0*%
%ADD29RoundRect,0.102000X0.950000X-0.900000X0.950000X0.900000X-0.950000X0.900000X-0.950000X-0.900000X0*%
%ADD30RoundRect,0.102000X0.950000X-0.950000X0.950000X0.950000X-0.950000X0.950000X-0.950000X-0.950000X0*%
%ADD31RoundRect,0.062500X-0.387500X-0.062500X0.387500X-0.062500X0.387500X0.062500X-0.387500X0.062500X0*%
%ADD32R,0.200000X1.600000*%
%ADD33RoundRect,0.135000X0.185000X-0.135000X0.185000X0.135000X-0.185000X0.135000X-0.185000X-0.135000X0*%
G04 APERTURE END LIST*
D10*
X120724999Y-86670336D02*
X120724999Y-86432241D01*
X120963094Y-86527479D02*
X120724999Y-86432241D01*
X120724999Y-86432241D02*
X120486904Y-86527479D01*
X120867856Y-86241765D02*
X120724999Y-86432241D01*
X120724999Y-86432241D02*
X120582142Y-86241765D01*
D11*
%TO.C,C11*%
X115590000Y-95692164D02*
X115590000Y-95907836D01*
X116310000Y-95692164D02*
X116310000Y-95907836D01*
%TO.C,R2*%
X111703641Y-89295000D02*
X111396359Y-89295000D01*
X111703641Y-90055000D02*
X111396359Y-90055000D01*
%TO.C,C12*%
X111632836Y-90340000D02*
X111417164Y-90340000D01*
X111632836Y-91060000D02*
X111417164Y-91060000D01*
%TO.C,R4*%
X123138641Y-92570000D02*
X122831359Y-92570000D01*
X123138641Y-93330000D02*
X122831359Y-93330000D01*
%TO.C,D1*%
X126970000Y-89580000D02*
X126970000Y-85570000D01*
X126970000Y-89580000D02*
X128970000Y-89580000D01*
X128970000Y-89580000D02*
X128970000Y-85570000D01*
%TO.C,C14*%
X122302164Y-85920000D02*
X122517836Y-85920000D01*
X122302164Y-86640000D02*
X122517836Y-86640000D01*
%TO.C,C9*%
X119665000Y-95742164D02*
X119665000Y-95957836D01*
X120385000Y-95742164D02*
X120385000Y-95957836D01*
%TO.C,C6*%
X122887164Y-89615000D02*
X123102836Y-89615000D01*
X122887164Y-90335000D02*
X123102836Y-90335000D01*
%TO.C,Y1*%
X106150000Y-90925000D02*
X106150000Y-87625000D01*
X110150000Y-90925000D02*
X106150000Y-90925000D01*
%TO.C,C10*%
X120710000Y-95748164D02*
X120710000Y-95963836D01*
X121430000Y-95748164D02*
X121430000Y-95963836D01*
%TO.C,C13*%
X115615000Y-85482836D02*
X115615000Y-85267164D01*
X116335000Y-85482836D02*
X116335000Y-85267164D01*
%TO.C,U2*%
X124910000Y-90970000D02*
X127630000Y-90970000D01*
X124910000Y-91950000D02*
X124910000Y-90970000D01*
X124910000Y-94710000D02*
X124910000Y-95690000D01*
X127490000Y-95690000D02*
X124910000Y-95690000D01*
X128280000Y-95870000D02*
X127800000Y-95870000D01*
X128040000Y-95540000D01*
X128280000Y-95870000D01*
G36*
X128280000Y-95870000D02*
G01*
X127800000Y-95870000D01*
X128040000Y-95540000D01*
X128280000Y-95870000D01*
G37*
%TO.C,C2*%
X125432164Y-96060000D02*
X125647836Y-96060000D01*
X125432164Y-96780000D02*
X125647836Y-96780000D01*
%TO.C,U1*%
X113594800Y-87001000D02*
X113594800Y-87671000D01*
X113594800Y-94101000D02*
X113594800Y-93431000D01*
X114264800Y-87001000D02*
X113594800Y-87001000D01*
X114264800Y-94101000D02*
X113594800Y-94101000D01*
X120024800Y-87001000D02*
X120694800Y-87001000D01*
X120024800Y-94101000D02*
X120694800Y-94101000D01*
X120694800Y-87001000D02*
X120694800Y-87671000D01*
X120694800Y-94101000D02*
X120694800Y-93431000D01*
%TO.C,C5*%
X107217164Y-91240000D02*
X107432836Y-91240000D01*
X107217164Y-91960000D02*
X107432836Y-91960000D01*
%TO.C,C8*%
X122892164Y-93590000D02*
X123107836Y-93590000D01*
X122892164Y-94310000D02*
X123107836Y-94310000D01*
%TO.C,C4*%
X111632836Y-88240000D02*
X111417164Y-88240000D01*
X111632836Y-88960000D02*
X111417164Y-88960000D01*
D12*
%TO.C,J1*%
X131775000Y-88950000D02*
X131775000Y-88840000D01*
X131775000Y-92500000D02*
X131775000Y-92390000D01*
X133150000Y-86920000D02*
X133500000Y-86920000D01*
X133150000Y-94420000D02*
X133500000Y-94420000D01*
X135850000Y-94420000D02*
X136125000Y-94420000D01*
X136125000Y-86920000D02*
X135850000Y-86920000D01*
X136125000Y-94420000D02*
X136125000Y-86920000D01*
D13*
X130800000Y-92070000D02*
G75*
G02*
X130600000Y-92070000I-100000J0D01*
G01*
X130600000Y-92070000D02*
G75*
G02*
X130800000Y-92070000I100000J0D01*
G01*
D11*
%TO.C,R6*%
X111718641Y-93670000D02*
X111411359Y-93670000D01*
X111718641Y-94430000D02*
X111411359Y-94430000D01*
%TO.C,C1*%
X127667836Y-89880000D02*
X127452164Y-89880000D01*
X127667836Y-90600000D02*
X127452164Y-90600000D01*
%TO.C,R3*%
X123138641Y-91570000D02*
X122831359Y-91570000D01*
X123138641Y-92330000D02*
X122831359Y-92330000D01*
%TO.C,U4*%
X123125000Y-86965000D02*
X126125000Y-86965000D01*
X123125000Y-89235000D02*
X126125000Y-89235000D01*
X122575000Y-87050000D02*
X122295000Y-87050000D01*
X122575000Y-86770000D01*
X122575000Y-87050000D01*
G36*
X122575000Y-87050000D02*
G01*
X122295000Y-87050000D01*
X122575000Y-86770000D01*
X122575000Y-87050000D01*
G37*
%TO.C,C15*%
X122892164Y-90590000D02*
X123107836Y-90590000D01*
X122892164Y-91310000D02*
X123107836Y-91310000D01*
%TO.C,R1*%
X124490000Y-85993641D02*
X124490000Y-85686359D01*
X125250000Y-85993641D02*
X125250000Y-85686359D01*
%TO.C,C7*%
X111657836Y-91340000D02*
X111442164Y-91340000D01*
X111657836Y-92060000D02*
X111442164Y-92060000D01*
%TO.C,C3*%
X125540000Y-85907836D02*
X125540000Y-85692164D01*
X126260000Y-85907836D02*
X126260000Y-85692164D01*
%TD*%
%LPC*%
%TO.C,U1*%
X116919800Y-90326000D02*
X115819800Y-90326000D01*
X115819800Y-89226000D01*
X116919800Y-89226000D01*
X116919800Y-90326000D01*
G36*
X116919800Y-90326000D02*
G01*
X115819800Y-90326000D01*
X115819800Y-89226000D01*
X116919800Y-89226000D01*
X116919800Y-90326000D01*
G37*
X116919800Y-91876000D02*
X115819800Y-91876000D01*
X115819800Y-90776000D01*
X116919800Y-90776000D01*
X116919800Y-91876000D01*
G36*
X116919800Y-91876000D02*
G01*
X115819800Y-91876000D01*
X115819800Y-90776000D01*
X116919800Y-90776000D01*
X116919800Y-91876000D01*
G37*
X118469800Y-90326000D02*
X117369800Y-90326000D01*
X117369800Y-89226000D01*
X118469800Y-89226000D01*
X118469800Y-90326000D01*
G36*
X118469800Y-90326000D02*
G01*
X117369800Y-90326000D01*
X117369800Y-89226000D01*
X118469800Y-89226000D01*
X118469800Y-90326000D01*
G37*
X118469800Y-91876000D02*
X117369800Y-91876000D01*
X117369800Y-90776000D01*
X118469800Y-90776000D01*
X118469800Y-91876000D01*
G36*
X118469800Y-91876000D02*
G01*
X117369800Y-91876000D01*
X117369800Y-90776000D01*
X118469800Y-90776000D01*
X118469800Y-91876000D01*
G37*
%TD*%
D14*
%TO.C,C11*%
X115950000Y-95320000D03*
X115950000Y-96280000D03*
%TD*%
D15*
%TO.C,R2*%
X112060000Y-89675000D03*
X111040000Y-89675000D03*
%TD*%
D16*
%TO.C,C12*%
X112005000Y-90700000D03*
X111045000Y-90700000D03*
%TD*%
D15*
%TO.C,R4*%
X123495000Y-92950000D03*
X122475000Y-92950000D03*
%TD*%
D17*
%TO.C,D1*%
X127970000Y-88870000D03*
X127970000Y-85570000D03*
%TD*%
D18*
%TO.C,C14*%
X121930000Y-86280000D03*
X122890000Y-86280000D03*
%TD*%
D14*
%TO.C,C9*%
X120025000Y-95370000D03*
X120025000Y-96330000D03*
%TD*%
D18*
%TO.C,C6*%
X122515000Y-89975000D03*
X123475000Y-89975000D03*
%TD*%
D19*
%TO.C,Y1*%
X107050000Y-90125000D03*
X109250000Y-90125000D03*
X109250000Y-88425000D03*
X107050000Y-88425000D03*
%TD*%
D14*
%TO.C,C10*%
X121070000Y-95376000D03*
X121070000Y-96336000D03*
%TD*%
D20*
%TO.C,C13*%
X115975000Y-85855000D03*
X115975000Y-84895000D03*
%TD*%
D21*
%TO.C,U2*%
X128220000Y-94830000D03*
D22*
X128132500Y-93330000D03*
D21*
X128220000Y-91830000D03*
%TD*%
D18*
%TO.C,C2*%
X125060000Y-96420000D03*
X126020000Y-96420000D03*
%TD*%
D23*
%TO.C,U1*%
X119744800Y-87166000D03*
X119344800Y-87166000D03*
X118944800Y-87166000D03*
X118544800Y-87166000D03*
X118144800Y-87166000D03*
X117744800Y-87166000D03*
X117344800Y-87166000D03*
X116944800Y-87166000D03*
X116544800Y-87166000D03*
X116144800Y-87166000D03*
X115744800Y-87166000D03*
X115344800Y-87166000D03*
X114944800Y-87166000D03*
X114544800Y-87166000D03*
D24*
X113759800Y-87951000D03*
X113759800Y-88351000D03*
X113759800Y-88751000D03*
X113759800Y-89151000D03*
X113759800Y-89551000D03*
X113759800Y-89951000D03*
X113759800Y-90351000D03*
X113759800Y-90751000D03*
X113759800Y-91151000D03*
X113759800Y-91551000D03*
X113759800Y-91951000D03*
X113759800Y-92351000D03*
X113759800Y-92751000D03*
X113759800Y-93151000D03*
D23*
X114544800Y-93936000D03*
X114944800Y-93936000D03*
X115344800Y-93936000D03*
X115744800Y-93936000D03*
X116144800Y-93936000D03*
X116544800Y-93936000D03*
X116944800Y-93936000D03*
X117344800Y-93936000D03*
X117744800Y-93936000D03*
X118144800Y-93936000D03*
X118544800Y-93936000D03*
X118944800Y-93936000D03*
X119344800Y-93936000D03*
X119744800Y-93936000D03*
D24*
X120529800Y-93151000D03*
X120529800Y-92751000D03*
X120529800Y-92351000D03*
X120529800Y-91951000D03*
X120529800Y-91551000D03*
X120529800Y-91151000D03*
X120529800Y-90751000D03*
X120529800Y-90351000D03*
X120529800Y-89951000D03*
X120529800Y-89551000D03*
X120529800Y-89151000D03*
X120529800Y-88751000D03*
X120529800Y-88351000D03*
X120529800Y-87951000D03*
%TD*%
D18*
%TO.C,C5*%
X106845000Y-91600000D03*
X107805000Y-91600000D03*
%TD*%
%TO.C,C8*%
X122520000Y-93950000D03*
X123480000Y-93950000D03*
%TD*%
D16*
%TO.C,C4*%
X112005000Y-88600000D03*
X111045000Y-88600000D03*
%TD*%
D25*
%TO.C,U5*%
X134650000Y-83000000D03*
D26*
X132110000Y-83000000D03*
X129570000Y-83000000D03*
X127030000Y-83000000D03*
X124490000Y-83000000D03*
X121950000Y-83000000D03*
X119410000Y-83000000D03*
X116870000Y-83000000D03*
X114330000Y-83000000D03*
X111790000Y-83000000D03*
X109250000Y-83000000D03*
X106710000Y-83000000D03*
X106710000Y-98240000D03*
X109250000Y-98240000D03*
X111790000Y-98240000D03*
X114330000Y-98240000D03*
X116870000Y-98240000D03*
X119410000Y-98240000D03*
X121950000Y-98240000D03*
X124490000Y-98240000D03*
X127030000Y-98240000D03*
X129570000Y-98240000D03*
X132110000Y-98240000D03*
X134650000Y-98240000D03*
%TD*%
D27*
%TO.C,J1*%
X132000000Y-91970000D03*
X132000000Y-91320000D03*
X132000000Y-90670000D03*
X132000000Y-90020000D03*
X132000000Y-89370000D03*
D28*
X132125000Y-93770000D03*
X132125000Y-87570000D03*
D29*
X134675000Y-94470000D03*
D30*
X134675000Y-91870000D03*
X134675000Y-89470000D03*
D29*
X134675000Y-86870000D03*
%TD*%
D15*
%TO.C,R6*%
X112075000Y-94050000D03*
X111055000Y-94050000D03*
%TD*%
D16*
%TO.C,C1*%
X128040000Y-90240000D03*
X127080000Y-90240000D03*
%TD*%
D15*
%TO.C,R3*%
X123495000Y-91950000D03*
X122475000Y-91950000D03*
%TD*%
D31*
%TO.C,U4*%
X123200000Y-87350000D03*
X123200000Y-87850000D03*
X123200000Y-88350000D03*
X123200000Y-88850000D03*
X126050000Y-88850000D03*
X126050000Y-88350000D03*
X126050000Y-87850000D03*
X126050000Y-87350000D03*
D32*
X124625000Y-88100000D03*
%TD*%
D18*
%TO.C,C15*%
X122520000Y-90950000D03*
X123480000Y-90950000D03*
%TD*%
D33*
%TO.C,R1*%
X124870000Y-86350000D03*
X124870000Y-85330000D03*
%TD*%
D16*
%TO.C,C7*%
X112030000Y-91700000D03*
X111070000Y-91700000D03*
%TD*%
D20*
%TO.C,C3*%
X125900000Y-86280000D03*
X125900000Y-85320000D03*
%TD*%
%LPD*%
M02*
