%TF.GenerationSoftware,KiCad,Pcbnew,8.0.7*%
%TF.CreationDate,2025-01-16T05:51:54+01:00*%
%TF.ProjectId,RP2040Micro,52503230-3430-44d6-9963-726f2e6b6963,rev?*%
%TF.SameCoordinates,Original*%
%TF.FileFunction,Copper,L2,Bot*%
%TF.FilePolarity,Positive*%
%FSLAX46Y46*%
G04 Gerber Fmt 4.6, Leading zero omitted, Abs format (unit mm)*
G04 Created by KiCad (PCBNEW 8.0.7) date 2025-01-16 05:51:54*
%MOMM*%
%LPD*%
G01*
G04 APERTURE LIST*
G04 Aperture macros list*
%AMRoundRect*
0 Rectangle with rounded corners*
0 $1 Rounding radius*
0 $2 $3 $4 $5 $6 $7 $8 $9 X,Y pos of 4 corners*
0 Add a 4 corners polygon primitive as box body*
4,1,4,$2,$3,$4,$5,$6,$7,$8,$9,$2,$3,0*
0 Add four circle primitives for the rounded corners*
1,1,$1+$1,$2,$3*
1,1,$1+$1,$4,$5*
1,1,$1+$1,$6,$7*
1,1,$1+$1,$8,$9*
0 Add four rect primitives between the rounded corners*
20,1,$1+$1,$2,$3,$4,$5,0*
20,1,$1+$1,$4,$5,$6,$7,0*
20,1,$1+$1,$6,$7,$8,$9,0*
20,1,$1+$1,$8,$9,$2,$3,0*%
%AMFreePoly0*
4,1,19,0.550000,-0.750000,0.000000,-0.750000,0.000000,-0.744911,-0.071157,-0.744911,-0.207708,-0.704816,-0.327430,-0.627875,-0.420627,-0.520320,-0.479746,-0.390866,-0.500000,-0.250000,-0.500000,0.250000,-0.479746,0.390866,-0.420627,0.520320,-0.327430,0.627875,-0.207708,0.704816,-0.071157,0.744911,0.000000,0.744911,0.000000,0.750000,0.550000,0.750000,0.550000,-0.750000,0.550000,-0.750000,
$1*%
%AMFreePoly1*
4,1,19,0.000000,0.744911,0.071157,0.744911,0.207708,0.704816,0.327430,0.627875,0.420627,0.520320,0.479746,0.390866,0.500000,0.250000,0.500000,-0.250000,0.479746,-0.390866,0.420627,-0.520320,0.327430,-0.627875,0.207708,-0.704816,0.071157,-0.744911,0.000000,-0.744911,0.000000,-0.750000,-0.550000,-0.750000,-0.550000,0.750000,0.000000,0.750000,0.000000,0.744911,0.000000,0.744911,
$1*%
G04 Aperture macros list end*
%TA.AperFunction,EtchedComponent*%
%ADD10C,0.000000*%
%TD*%
%TA.AperFunction,ComponentPad*%
%ADD11R,1.574800X1.574800*%
%TD*%
%TA.AperFunction,ComponentPad*%
%ADD12C,1.574800*%
%TD*%
%TA.AperFunction,SMDPad,CuDef*%
%ADD13R,1.000000X1.000000*%
%TD*%
%TA.AperFunction,SMDPad,CuDef*%
%ADD14RoundRect,0.250000X-0.350000X-0.450000X0.350000X-0.450000X0.350000X0.450000X-0.350000X0.450000X0*%
%TD*%
%TA.AperFunction,SMDPad,CuDef*%
%ADD15FreePoly0,180.000000*%
%TD*%
%TA.AperFunction,SMDPad,CuDef*%
%ADD16R,1.000000X1.500000*%
%TD*%
%TA.AperFunction,SMDPad,CuDef*%
%ADD17FreePoly1,180.000000*%
%TD*%
%TA.AperFunction,ViaPad*%
%ADD18C,0.650000*%
%TD*%
%TA.AperFunction,ViaPad*%
%ADD19C,0.600000*%
%TD*%
%TA.AperFunction,ViaPad*%
%ADD20C,0.450000*%
%TD*%
%TA.AperFunction,Conductor*%
%ADD21C,0.600000*%
%TD*%
%TA.AperFunction,Conductor*%
%ADD22C,0.150000*%
%TD*%
%TA.AperFunction,Conductor*%
%ADD23C,0.500000*%
%TD*%
G04 APERTURE END LIST*
D10*
%TA.AperFunction,EtchedComponent*%
%TO.C,JP1*%
G36*
X133350000Y-86177500D02*
G01*
X132850000Y-86177500D01*
X132850000Y-85777500D01*
X133350000Y-85777500D01*
X133350000Y-86177500D01*
G37*
%TD.AperFunction*%
%TA.AperFunction,EtchedComponent*%
%TO.C,JP2*%
G36*
X128640000Y-86200000D02*
G01*
X128140000Y-86200000D01*
X128140000Y-85800000D01*
X128640000Y-85800000D01*
X128640000Y-86200000D01*
G37*
%TD.AperFunction*%
%TD*%
D11*
%TO.P,U5,1,1/TX*%
%TO.N,D1*%
X134650000Y-83000000D03*
D12*
%TO.P,U5,2,0/RX*%
%TO.N,D0*%
X132110000Y-83000000D03*
%TO.P,U5,3,GND*%
%TO.N,Net-(JP1-C)*%
X129570000Y-83000000D03*
%TO.P,U5,4,GND*%
%TO.N,Net-(JP2-C)*%
X127030000Y-83000000D03*
%TO.P,U5,5,2/SDA*%
%TO.N,D2*%
X124490000Y-83000000D03*
%TO.P,U5,6,3(PWM)/SCL*%
%TO.N,D3*%
X121950000Y-83000000D03*
%TO.P,U5,7,4/A6*%
%TO.N,D4*%
X119410000Y-83000000D03*
%TO.P,U5,8,5(PWM)*%
%TO.N,D5*%
X116870000Y-83000000D03*
%TO.P,U5,9,6(PWM)/A7*%
%TO.N,D6*%
X114330000Y-83000000D03*
%TO.P,U5,10,7*%
%TO.N,D7*%
X111790000Y-83000000D03*
%TO.P,U5,11,8/A8*%
%TO.N,D8*%
X109250000Y-83000000D03*
%TO.P,U5,12,9(PWM)/A9*%
%TO.N,D9*%
X106710000Y-83000000D03*
%TO.P,U5,13,10(PWM)/A10*%
%TO.N,D10*%
X106710000Y-98240000D03*
%TO.P,U5,14,16*%
%TO.N,D16*%
X109250000Y-98240000D03*
%TO.P,U5,15,14*%
%TO.N,D14*%
X111790000Y-98240000D03*
%TO.P,U5,16,15*%
%TO.N,D15*%
X114330000Y-98240000D03*
%TO.P,U5,17,18/A0*%
%TO.N,A0*%
X116870000Y-98240000D03*
%TO.P,U5,18,19/A1*%
%TO.N,A1*%
X119410000Y-98240000D03*
%TO.P,U5,19,20/A2*%
%TO.N,A2*%
X121950000Y-98240000D03*
%TO.P,U5,20,21/A3*%
%TO.N,A3*%
X124490000Y-98240000D03*
%TO.P,U5,21,+5V*%
%TO.N,3.3V*%
X127030000Y-98240000D03*
%TO.P,U5,22,RESET*%
%TO.N,BOOT_SEL*%
X129570000Y-98240000D03*
%TO.P,U5,23,GND*%
%TO.N,GND*%
X132110000Y-98240000D03*
%TO.P,U5,24,VIN*%
%TO.N,VIN*%
X134650000Y-98240000D03*
%TD*%
D13*
%TO.P,J6,1,Pin_1*%
%TO.N,GND*%
X109300000Y-88670000D03*
%TD*%
D14*
%TO.P,R5,1*%
%TO.N,/RP2040/QSPI_SS*%
X121425000Y-86525000D03*
%TO.P,R5,2*%
%TO.N,3.3V*%
X123425000Y-86525000D03*
%TD*%
D13*
%TO.P,J12,1,Pin_1*%
%TO.N,D19*%
X121825000Y-94750000D03*
%TD*%
D15*
%TO.P,JP1,1,A*%
%TO.N,GND*%
X133750000Y-85977500D03*
D16*
%TO.P,JP1,2,C*%
%TO.N,Net-(JP1-C)*%
X132450000Y-85977500D03*
D17*
%TO.P,JP1,3,B*%
%TO.N,D11*%
X131150000Y-85977500D03*
%TD*%
D15*
%TO.P,JP2,1,A*%
%TO.N,GND*%
X129040000Y-86000000D03*
D16*
%TO.P,JP2,2,C*%
%TO.N,Net-(JP2-C)*%
X127740000Y-86000000D03*
D17*
%TO.P,JP2,3,B*%
%TO.N,D12*%
X126440000Y-86000000D03*
%TD*%
D13*
%TO.P,J5,1,Pin_1*%
%TO.N,/RP2040/~{RST}*%
X106525000Y-90795000D03*
%TD*%
%TO.P,J16,1,Pin_1*%
%TO.N,D23*%
X130135000Y-94750000D03*
%TD*%
%TO.P,J3,1,Pin_1*%
%TO.N,/RP2040/SWD*%
X109300000Y-90750000D03*
%TD*%
%TO.P,J15,1,Pin_1*%
%TO.N,D22*%
X128060000Y-94750000D03*
%TD*%
%TO.P,J13,1,Pin_1*%
%TO.N,D20*%
X123910000Y-94750000D03*
%TD*%
%TO.P,J14,1,Pin_1*%
%TO.N,D21*%
X125985000Y-94750000D03*
%TD*%
%TO.P,J4,1,Pin_1*%
%TO.N,/RP2040/SWCLK*%
X106525000Y-88720000D03*
%TD*%
D18*
%TO.N,GND*%
X133310000Y-92360000D03*
X117919800Y-89776000D03*
X130550000Y-93625000D03*
X110740000Y-95640000D03*
D19*
X115625000Y-97425000D03*
D18*
X107000000Y-86725000D03*
X123575000Y-85300000D03*
X130375000Y-89350000D03*
X109500000Y-86825000D03*
X117144800Y-90551000D03*
X116950000Y-85250000D03*
X112040000Y-84590000D03*
X113868554Y-84431446D03*
X117919800Y-91326000D03*
D19*
X117500000Y-96900000D03*
D18*
X116369800Y-89776000D03*
X108425000Y-94700000D03*
X122900000Y-94760000D03*
D19*
X114775000Y-88200000D03*
D18*
X111625000Y-86775000D03*
X132275000Y-95725000D03*
X126075000Y-91075000D03*
X126360000Y-90390000D03*
X106800000Y-93020000D03*
X127300000Y-96725000D03*
D19*
X113850000Y-95575000D03*
D18*
X127850000Y-87575000D03*
X113875000Y-87200000D03*
X108175002Y-90106908D03*
X109900000Y-93900000D03*
D19*
X114775000Y-89500000D03*
D18*
X133290000Y-89330000D03*
X122375000Y-97025000D03*
X106820000Y-95640000D03*
D19*
X113475000Y-94850000D03*
D18*
X130350000Y-87500000D03*
X109640000Y-84660000D03*
X120960000Y-97230000D03*
X121000000Y-85400000D03*
X134675000Y-84850000D03*
X110175000Y-91525000D03*
X134850000Y-96600000D03*
X116369800Y-91326000D03*
X108110002Y-88388816D03*
X124630000Y-89770000D03*
X106720000Y-85010000D03*
X128650000Y-96700000D03*
D20*
%TO.N,/RP2040/USB_D-*%
X130685914Y-91445000D03*
D19*
X123495000Y-92950000D03*
%TO.N,/RP2040/USB_D+*%
X123495000Y-91950000D03*
D20*
X130555000Y-90320000D03*
%TO.N,/RP2040/SWD*%
X109575000Y-92075000D03*
%TO.N,/RP2040/SWCLK*%
X109175000Y-92475000D03*
%TO.N,/RP2040/~{RST}*%
X109704657Y-92875000D03*
%TO.N,/RP2040/QSPI_SS*%
X122400000Y-86975000D03*
%TO.N,D0*%
X130240000Y-84950000D03*
%TO.N,D10*%
X112300000Y-86000000D03*
%TO.N,/RP2040/QSPI_SD3*%
X125100000Y-87850000D03*
X122300000Y-88800000D03*
%TO.N,/RP2040/QSPI_SCLK*%
X121900000Y-89232189D03*
X125225000Y-88400000D03*
%TO.N,/RP2040/QSPI_SD0*%
X121582843Y-88782843D03*
X125048666Y-88929424D03*
%TO.N,D12*%
X112825000Y-87975000D03*
%TO.N,D11*%
X112819124Y-86375000D03*
X131134315Y-84150001D03*
X125820000Y-84150000D03*
%TO.N,D15*%
X113056417Y-89343583D03*
%TO.N,D14*%
X112675000Y-88925000D03*
%TO.N,D19*%
X114525000Y-94975000D03*
%TO.N,BOOT_SEL*%
X124870000Y-85330000D03*
X129110336Y-95825000D03*
%TO.N,D20*%
X114975000Y-95355381D03*
%TO.N,D21*%
X115409801Y-95742931D03*
%TO.N,D22*%
X116585000Y-95475000D03*
%TO.N,D23*%
X116950000Y-95925000D03*
D19*
%TO.N,3.3V*%
X116144800Y-87880092D03*
X116205000Y-93167200D03*
X114640268Y-90742268D03*
X125614913Y-89895087D03*
X119546232Y-87978768D03*
X121350000Y-93550000D03*
X125110000Y-91250000D03*
X125110000Y-90400000D03*
X122520000Y-90950000D03*
D20*
%TO.N,Net-(JP1-C)*%
X131700000Y-84150000D03*
%TO.N,D16*%
X110025000Y-96550000D03*
X111625000Y-93125000D03*
%TD*%
D21*
%TO.N,/RP2040/USB_D-*%
X123695000Y-92750000D02*
X123495000Y-92950000D01*
X130685914Y-91445000D02*
X129380914Y-92750000D01*
X129380914Y-92750000D02*
X123695000Y-92750000D01*
%TO.N,/RP2040/USB_D+*%
X130555000Y-90320000D02*
X128925000Y-91950000D01*
X128925000Y-91950000D02*
X123495000Y-91950000D01*
D22*
%TO.N,/RP2040/SWD*%
X109300000Y-91800000D02*
X109300000Y-90750000D01*
X109575000Y-92075000D02*
X109300000Y-91800000D01*
%TO.N,/RP2040/SWCLK*%
X107230000Y-89425000D02*
X106550000Y-88745000D01*
X107230000Y-91088578D02*
X107230000Y-89425000D01*
X108616422Y-92475000D02*
X107230000Y-91088578D01*
X109175000Y-92475000D02*
X108616422Y-92475000D01*
%TO.N,/RP2040/~{RST}*%
X109704657Y-92875000D02*
X109672877Y-92906780D01*
X106582868Y-90795000D02*
X106525000Y-90795000D01*
X109672877Y-92906780D02*
X108694648Y-92906780D01*
X108694648Y-92906780D02*
X106582868Y-90795000D01*
%TO.N,/RP2040/QSPI_SS*%
X121425000Y-86525000D02*
X121875000Y-86975000D01*
X121875000Y-86975000D02*
X122400000Y-86975000D01*
%TO.N,D1*%
X134230000Y-83430000D02*
X134610000Y-83050000D01*
%TO.N,D0*%
X130240000Y-84950000D02*
X130240000Y-83980000D01*
X130240000Y-83980000D02*
X131220000Y-83000000D01*
X131220000Y-83000000D02*
X132110000Y-83000000D01*
X132070000Y-83610000D02*
X132070000Y-83050000D01*
%TO.N,D2*%
X123892892Y-83050000D02*
X124450000Y-83050000D01*
X124430000Y-83050000D02*
X124440000Y-83060000D01*
X123875000Y-83050000D02*
X124430000Y-83050000D01*
%TO.N,D10*%
X112025000Y-87450000D02*
X112025000Y-96345000D01*
X112300000Y-86000000D02*
X112350000Y-86050000D01*
X111420000Y-96950000D02*
X108000000Y-96950000D01*
X112025000Y-96345000D02*
X111420000Y-96950000D01*
X112350000Y-86050000D02*
X112350000Y-87125000D01*
X112350000Y-87125000D02*
X112025000Y-87450000D01*
X108000000Y-96950000D02*
X106710000Y-98240000D01*
%TO.N,/RP2040/QSPI_SD3*%
X123250000Y-87800000D02*
X125050000Y-87800000D01*
X122300000Y-88750000D02*
X123250000Y-87800000D01*
X122300000Y-88800000D02*
X122300000Y-88750000D01*
X125050000Y-87800000D02*
X125100000Y-87850000D01*
%TO.N,/RP2040/QSPI_SCLK*%
X121900000Y-89232189D02*
X122542811Y-89232189D01*
X123375000Y-88400000D02*
X125225000Y-88400000D01*
X122542811Y-89232189D02*
X123375000Y-88400000D01*
%TO.N,/RP2040/QSPI_SD0*%
X125265686Y-87450000D02*
X122915686Y-87450000D01*
X125625000Y-88565686D02*
X125625000Y-87809314D01*
X125625000Y-87809314D02*
X125265686Y-87450000D01*
X122915686Y-87450000D02*
X121582843Y-88782843D01*
X125261262Y-88929424D02*
X125625000Y-88565686D01*
X125048666Y-88929424D02*
X125261262Y-88929424D01*
%TO.N,A1*%
X119340000Y-98290000D02*
X119370000Y-98290000D01*
%TO.N,D12*%
X124800000Y-84300000D02*
X126215000Y-85715000D01*
X112825000Y-87975000D02*
X112825000Y-86934810D01*
X115459810Y-84300000D02*
X124800000Y-84300000D01*
X112825000Y-86934810D02*
X115459810Y-84300000D01*
%TO.N,D11*%
X131150000Y-84165686D02*
X131150000Y-85467500D01*
X131134315Y-84150001D02*
X131150000Y-84165686D01*
X115144124Y-84050000D02*
X125720000Y-84050000D01*
X112819124Y-86375000D02*
X115144124Y-84050000D01*
X125720000Y-84050000D02*
X125820000Y-84150000D01*
%TO.N,D15*%
X112525000Y-96435000D02*
X114330000Y-98240000D01*
X112525000Y-89875000D02*
X112525000Y-96435000D01*
X113056417Y-89343583D02*
X112525000Y-89875000D01*
%TO.N,D14*%
X112675000Y-89025000D02*
X112275000Y-89425000D01*
X112275000Y-97755000D02*
X111790000Y-98240000D01*
X111750000Y-98290000D02*
X111758000Y-98298000D01*
X112275000Y-89425000D02*
X112275000Y-97755000D01*
X112025000Y-98015000D02*
X111750000Y-98290000D01*
X112675000Y-88925000D02*
X112675000Y-89025000D01*
%TO.N,D19*%
X114925000Y-94575000D02*
X121650000Y-94575000D01*
X114525000Y-94975000D02*
X114925000Y-94575000D01*
X121650000Y-94575000D02*
X121825000Y-94750000D01*
%TO.N,BOOT_SEL*%
X117615686Y-95825000D02*
X120135785Y-95825000D01*
X113020000Y-96350000D02*
X117090686Y-96350000D01*
X123649216Y-96425000D02*
X123899216Y-96175000D01*
X117090686Y-96350000D02*
X117615686Y-95825000D01*
X113456417Y-89509269D02*
X112775000Y-90190686D01*
X112775000Y-96105000D02*
X113020000Y-96350000D01*
X129005336Y-95930000D02*
X129110336Y-95825000D01*
X125620662Y-96175000D02*
X125865662Y-95930000D01*
X113225000Y-88946480D02*
X113456417Y-89177897D01*
X125865662Y-95930000D02*
X129005336Y-95930000D01*
X115563364Y-84550000D02*
X113225000Y-86888364D01*
X120735784Y-96425000D02*
X123649216Y-96425000D01*
X129570000Y-97695000D02*
X129570000Y-98240000D01*
X123899216Y-96175000D02*
X125620662Y-96175000D01*
X124870000Y-85330000D02*
X124090000Y-84550000D01*
X113456417Y-89177897D02*
X113456417Y-89509269D01*
X124090000Y-84550000D02*
X115563364Y-84550000D01*
X120589338Y-96278553D02*
X120735784Y-96425000D01*
X112775000Y-90190686D02*
X112775000Y-96105000D01*
X120135785Y-95825000D02*
X120589338Y-96278553D01*
X113225000Y-86888364D02*
X113225000Y-88946480D01*
%TO.N,D20*%
X115505381Y-94825000D02*
X120550000Y-94825000D01*
X121150000Y-95425000D02*
X123235000Y-95425000D01*
X123235000Y-95425000D02*
X123910000Y-94750000D01*
X120550000Y-94825000D02*
X121150000Y-95425000D01*
X114975000Y-95355381D02*
X115505381Y-94825000D01*
%TO.N,D21*%
X123588554Y-95425000D02*
X125310000Y-95425000D01*
X125310000Y-95425000D02*
X125985000Y-94750000D01*
X120446446Y-95075000D02*
X121046446Y-95675000D01*
X123338554Y-95675000D02*
X123588554Y-95425000D01*
X121046446Y-95675000D02*
X123338554Y-95675000D01*
X115409801Y-95742931D02*
X116077732Y-95075000D01*
X116077732Y-95075000D02*
X120446446Y-95075000D01*
%TO.N,D22*%
X125413554Y-95675000D02*
X125658554Y-95430000D01*
X127380000Y-95430000D02*
X128060000Y-94750000D01*
X116585000Y-95475000D02*
X116735000Y-95325000D01*
X116735000Y-95325000D02*
X120342892Y-95325000D01*
X125658554Y-95430000D02*
X127380000Y-95430000D01*
X123692108Y-95675000D02*
X125413554Y-95675000D01*
X120342892Y-95325000D02*
X120942892Y-95925000D01*
X123442108Y-95925000D02*
X123692108Y-95675000D01*
X120942892Y-95925000D02*
X123442108Y-95925000D01*
%TO.N,D23*%
X123545662Y-96175000D02*
X123795662Y-95925000D01*
X123795662Y-95925000D02*
X125517108Y-95925000D01*
X120839338Y-96175000D02*
X123545662Y-96175000D01*
X116950000Y-95925000D02*
X117300000Y-95575000D01*
X120239338Y-95575000D02*
X120839338Y-96175000D01*
X127738554Y-95425000D02*
X129460000Y-95425000D01*
X125517108Y-95925000D02*
X125762108Y-95680000D01*
X125762108Y-95680000D02*
X127483554Y-95680000D01*
X117300000Y-95575000D02*
X120239338Y-95575000D01*
X127483554Y-95680000D02*
X127738554Y-95425000D01*
X129460000Y-95425000D02*
X130135000Y-94750000D01*
%TO.N,3.3V*%
X116064692Y-87960200D02*
X116144800Y-87880092D01*
D23*
X122520000Y-90950000D02*
X122870000Y-91300000D01*
X120000000Y-88432536D02*
X119546232Y-87978768D01*
X120800000Y-90950000D02*
X120000000Y-90150000D01*
X122520000Y-90950000D02*
X120800000Y-90950000D01*
D22*
X125900000Y-87730760D02*
X125369240Y-87200000D01*
D23*
X120000000Y-90150000D02*
X120000000Y-88432536D01*
D22*
X123800000Y-86480000D02*
X123830000Y-86450000D01*
X125900000Y-89610000D02*
X125900000Y-87730760D01*
D23*
X114640268Y-90742268D02*
X114640268Y-92590268D01*
X119546232Y-87978768D02*
X119417464Y-87850000D01*
X125110000Y-90400000D02*
X125110000Y-91250000D01*
X125614913Y-89895087D02*
X125110000Y-90400000D01*
D22*
X125614913Y-89895087D02*
X125900000Y-89610000D01*
D23*
X116172200Y-93200000D02*
X116205000Y-93167200D01*
X116212800Y-93175000D02*
X120975000Y-93175000D01*
D22*
X125369240Y-87200000D02*
X124100000Y-87200000D01*
D23*
X116205000Y-93167200D02*
X116212800Y-93175000D01*
X125060000Y-91300000D02*
X125110000Y-91250000D01*
X114640268Y-92590268D02*
X115250000Y-93200000D01*
X119417464Y-87850000D02*
X116174892Y-87850000D01*
X116174892Y-87850000D02*
X116144800Y-87880092D01*
D22*
X124100000Y-87200000D02*
X123425000Y-86525000D01*
D23*
X115250000Y-93200000D02*
X116172200Y-93200000D01*
X120975000Y-93175000D02*
X121350000Y-93550000D01*
X122870000Y-91300000D02*
X125060000Y-91300000D01*
D22*
%TO.N,Net-(JP1-C)*%
X132450000Y-84900000D02*
X132450000Y-85467500D01*
X131700000Y-84150000D02*
X132450000Y-84900000D01*
%TO.N,Net-(JP2-C)*%
X127740000Y-86000000D02*
X127740000Y-83710000D01*
X127740000Y-83710000D02*
X127030000Y-83000000D01*
%TO.N,D16*%
X111316446Y-96700000D02*
X110175000Y-96700000D01*
X111775000Y-93275000D02*
X111775000Y-96241446D01*
X111625000Y-93125000D02*
X111775000Y-93275000D01*
X111775000Y-96241446D02*
X111316446Y-96700000D01*
X110175000Y-96700000D02*
X110025000Y-96550000D01*
%TD*%
%TA.AperFunction,Conductor*%
%TO.N,GND*%
G36*
X106268229Y-81850185D02*
G01*
X106313984Y-81902989D01*
X106323928Y-81972147D01*
X106294903Y-82035703D01*
X106259643Y-82063858D01*
X106130589Y-82132838D01*
X106130582Y-82132842D01*
X105972542Y-82262542D01*
X105842842Y-82420582D01*
X105842838Y-82420589D01*
X105746466Y-82600889D01*
X105687117Y-82796533D01*
X105667078Y-83000000D01*
X105687117Y-83203466D01*
X105746466Y-83399110D01*
X105842838Y-83579410D01*
X105842842Y-83579417D01*
X105972542Y-83737457D01*
X106130582Y-83867157D01*
X106130589Y-83867161D01*
X106173846Y-83890282D01*
X106310891Y-83963534D01*
X106506536Y-84022883D01*
X106710000Y-84042922D01*
X106913464Y-84022883D01*
X107109109Y-83963534D01*
X107289416Y-83867158D01*
X107447457Y-83737457D01*
X107577158Y-83579416D01*
X107673534Y-83399109D01*
X107732883Y-83203464D01*
X107752922Y-83000000D01*
X107732883Y-82796536D01*
X107673534Y-82600891D01*
X107577158Y-82420584D01*
X107577157Y-82420582D01*
X107447457Y-82262542D01*
X107289417Y-82132842D01*
X107289410Y-82132838D01*
X107160357Y-82063858D01*
X107110513Y-82014896D01*
X107095052Y-81946758D01*
X107118883Y-81881079D01*
X107174441Y-81838710D01*
X107218810Y-81830500D01*
X108741190Y-81830500D01*
X108808229Y-81850185D01*
X108853984Y-81902989D01*
X108863928Y-81972147D01*
X108834903Y-82035703D01*
X108799643Y-82063858D01*
X108670589Y-82132838D01*
X108670582Y-82132842D01*
X108512542Y-82262542D01*
X108382842Y-82420582D01*
X108382838Y-82420589D01*
X108286466Y-82600889D01*
X108227117Y-82796533D01*
X108207078Y-83000000D01*
X108227117Y-83203466D01*
X108286466Y-83399110D01*
X108382838Y-83579410D01*
X108382842Y-83579417D01*
X108512542Y-83737457D01*
X108670582Y-83867157D01*
X108670589Y-83867161D01*
X108713846Y-83890282D01*
X108850891Y-83963534D01*
X109046536Y-84022883D01*
X109250000Y-84042922D01*
X109453464Y-84022883D01*
X109649109Y-83963534D01*
X109829416Y-83867158D01*
X109987457Y-83737457D01*
X110117158Y-83579416D01*
X110213534Y-83399109D01*
X110272883Y-83203464D01*
X110292922Y-83000000D01*
X110272883Y-82796536D01*
X110213534Y-82600891D01*
X110117158Y-82420584D01*
X110117157Y-82420582D01*
X109987457Y-82262542D01*
X109829417Y-82132842D01*
X109829410Y-82132838D01*
X109700357Y-82063858D01*
X109650513Y-82014896D01*
X109635052Y-81946758D01*
X109658883Y-81881079D01*
X109714441Y-81838710D01*
X109758810Y-81830500D01*
X111281190Y-81830500D01*
X111348229Y-81850185D01*
X111393984Y-81902989D01*
X111403928Y-81972147D01*
X111374903Y-82035703D01*
X111339643Y-82063858D01*
X111210589Y-82132838D01*
X111210582Y-82132842D01*
X111052542Y-82262542D01*
X110922842Y-82420582D01*
X110922838Y-82420589D01*
X110826466Y-82600889D01*
X110767117Y-82796533D01*
X110747078Y-83000000D01*
X110767117Y-83203466D01*
X110826466Y-83399110D01*
X110922838Y-83579410D01*
X110922842Y-83579417D01*
X111052542Y-83737457D01*
X111210582Y-83867157D01*
X111210589Y-83867161D01*
X111253846Y-83890282D01*
X111390891Y-83963534D01*
X111586536Y-84022883D01*
X111790000Y-84042922D01*
X111993464Y-84022883D01*
X112189109Y-83963534D01*
X112369416Y-83867158D01*
X112527457Y-83737457D01*
X112657158Y-83579416D01*
X112753534Y-83399109D01*
X112812883Y-83203464D01*
X112832922Y-83000000D01*
X112812883Y-82796536D01*
X112753534Y-82600891D01*
X112657158Y-82420584D01*
X112657157Y-82420582D01*
X112527457Y-82262542D01*
X112369417Y-82132842D01*
X112369410Y-82132838D01*
X112240357Y-82063858D01*
X112190513Y-82014896D01*
X112175052Y-81946758D01*
X112198883Y-81881079D01*
X112254441Y-81838710D01*
X112298810Y-81830500D01*
X113821190Y-81830500D01*
X113888229Y-81850185D01*
X113933984Y-81902989D01*
X113943928Y-81972147D01*
X113914903Y-82035703D01*
X113879643Y-82063858D01*
X113750589Y-82132838D01*
X113750582Y-82132842D01*
X113592542Y-82262542D01*
X113462842Y-82420582D01*
X113462838Y-82420589D01*
X113366466Y-82600889D01*
X113307117Y-82796533D01*
X113287078Y-83000000D01*
X113307117Y-83203466D01*
X113366466Y-83399110D01*
X113462838Y-83579410D01*
X113462842Y-83579417D01*
X113592542Y-83737457D01*
X113750582Y-83867157D01*
X113750589Y-83867161D01*
X113793846Y-83890282D01*
X113930891Y-83963534D01*
X114126536Y-84022883D01*
X114330000Y-84042922D01*
X114385413Y-84037464D01*
X114454059Y-84050483D01*
X114504769Y-84098547D01*
X114521444Y-84166398D01*
X114498788Y-84232493D01*
X114485248Y-84248548D01*
X112921140Y-85812656D01*
X112859817Y-85846141D01*
X112790125Y-85841157D01*
X112734192Y-85799285D01*
X112720665Y-85776488D01*
X112704131Y-85740285D01*
X112704130Y-85740282D01*
X112681035Y-85713629D01*
X112614590Y-85636946D01*
X112614586Y-85636942D01*
X112517421Y-85574500D01*
X112499561Y-85563022D01*
X112499560Y-85563021D01*
X112499559Y-85563021D01*
X112368368Y-85524500D01*
X112368367Y-85524500D01*
X112231633Y-85524500D01*
X112231632Y-85524500D01*
X112100440Y-85563021D01*
X111985413Y-85636942D01*
X111985409Y-85636946D01*
X111895872Y-85740278D01*
X111895867Y-85740285D01*
X111839070Y-85864654D01*
X111839068Y-85864662D01*
X111819610Y-86000000D01*
X111839068Y-86135337D01*
X111839070Y-86135345D01*
X111895867Y-86259714D01*
X111895872Y-86259721D01*
X111991219Y-86369758D01*
X111989199Y-86371508D01*
X112019475Y-86418612D01*
X112024500Y-86453554D01*
X112024500Y-86938811D01*
X112004815Y-87005850D01*
X111988181Y-87026492D01*
X111764537Y-87250135D01*
X111764533Y-87250141D01*
X111721681Y-87324361D01*
X111721682Y-87324362D01*
X111699500Y-87407147D01*
X111699500Y-92525500D01*
X111679815Y-92592539D01*
X111627011Y-92638294D01*
X111575500Y-92649500D01*
X111556632Y-92649500D01*
X111425440Y-92688021D01*
X111310413Y-92761942D01*
X111310409Y-92761946D01*
X111220872Y-92865278D01*
X111220867Y-92865285D01*
X111164070Y-92989654D01*
X111164068Y-92989662D01*
X111144610Y-93125000D01*
X111164068Y-93260337D01*
X111164070Y-93260345D01*
X111220867Y-93384714D01*
X111220872Y-93384721D01*
X111310409Y-93488053D01*
X111310413Y-93488057D01*
X111392538Y-93540834D01*
X111438294Y-93593637D01*
X111449500Y-93645150D01*
X111449500Y-96055257D01*
X111429815Y-96122296D01*
X111413181Y-96142938D01*
X111217938Y-96338181D01*
X111156615Y-96371666D01*
X111130257Y-96374500D01*
X110547280Y-96374500D01*
X110480241Y-96354815D01*
X110434486Y-96302011D01*
X110429130Y-96290282D01*
X110339589Y-96186945D01*
X110339586Y-96186942D01*
X110224559Y-96113021D01*
X110093368Y-96074500D01*
X110093367Y-96074500D01*
X109956633Y-96074500D01*
X109956632Y-96074500D01*
X109825440Y-96113021D01*
X109710413Y-96186942D01*
X109710409Y-96186946D01*
X109620872Y-96290278D01*
X109620867Y-96290285D01*
X109564070Y-96414654D01*
X109564068Y-96414663D01*
X109561077Y-96435465D01*
X109551320Y-96503334D01*
X109549190Y-96518146D01*
X109520165Y-96581702D01*
X109461387Y-96619477D01*
X109426452Y-96624500D01*
X107957147Y-96624500D01*
X107874362Y-96646682D01*
X107874359Y-96646683D01*
X107824449Y-96675499D01*
X107807186Y-96685466D01*
X107802594Y-96688116D01*
X107800134Y-96689537D01*
X107241303Y-97248368D01*
X107179980Y-97281853D01*
X107115244Y-97277223D01*
X107114938Y-97278234D01*
X107110484Y-97276883D01*
X107110288Y-97276869D01*
X107109782Y-97276670D01*
X106913466Y-97217117D01*
X106710000Y-97197078D01*
X106506533Y-97217117D01*
X106310889Y-97276466D01*
X106130589Y-97372838D01*
X106130582Y-97372842D01*
X105972542Y-97502542D01*
X105842842Y-97660582D01*
X105842838Y-97660589D01*
X105746466Y-97840889D01*
X105687117Y-98036533D01*
X105667078Y-98240000D01*
X105687117Y-98443466D01*
X105746466Y-98639110D01*
X105842838Y-98819410D01*
X105842842Y-98819417D01*
X105972542Y-98977457D01*
X106130582Y-99107157D01*
X106130589Y-99107161D01*
X106297060Y-99196142D01*
X106346904Y-99245104D01*
X106362365Y-99313242D01*
X106338533Y-99378921D01*
X106282976Y-99421290D01*
X106238607Y-99429500D01*
X105524500Y-99429500D01*
X105457461Y-99409815D01*
X105411706Y-99357011D01*
X105400500Y-99305500D01*
X105400500Y-88195321D01*
X105774500Y-88195321D01*
X105774500Y-89244678D01*
X105789032Y-89317735D01*
X105789033Y-89317739D01*
X105796103Y-89328320D01*
X105844399Y-89400601D01*
X105927260Y-89455966D01*
X105927264Y-89455967D01*
X106000321Y-89470499D01*
X106000324Y-89470500D01*
X106000326Y-89470500D01*
X106763811Y-89470500D01*
X106830850Y-89490185D01*
X106851492Y-89506819D01*
X106868181Y-89523508D01*
X106901666Y-89584831D01*
X106904500Y-89611189D01*
X106904500Y-89920500D01*
X106884815Y-89987539D01*
X106832011Y-90033294D01*
X106780500Y-90044500D01*
X106000323Y-90044500D01*
X105927264Y-90059032D01*
X105927260Y-90059033D01*
X105844399Y-90114399D01*
X105789033Y-90197260D01*
X105789032Y-90197264D01*
X105774500Y-90270321D01*
X105774500Y-91319678D01*
X105789032Y-91392735D01*
X105789033Y-91392739D01*
X105789034Y-91392740D01*
X105844399Y-91475601D01*
X105909691Y-91519227D01*
X105927260Y-91530966D01*
X105927264Y-91530967D01*
X106000321Y-91545499D01*
X106000324Y-91545500D01*
X106000326Y-91545500D01*
X106821679Y-91545500D01*
X106888718Y-91565185D01*
X106909360Y-91581819D01*
X108494786Y-93167245D01*
X108569009Y-93210098D01*
X108651795Y-93232280D01*
X108737501Y-93232280D01*
X109344673Y-93232280D01*
X109411710Y-93251963D01*
X109505096Y-93311978D01*
X109505098Y-93311978D01*
X109505099Y-93311979D01*
X109636289Y-93350500D01*
X109636290Y-93350500D01*
X109773024Y-93350500D01*
X109904218Y-93311978D01*
X110019246Y-93238055D01*
X110108787Y-93134718D01*
X110165588Y-93010342D01*
X110185047Y-92875000D01*
X110165588Y-92739658D01*
X110147248Y-92699500D01*
X110108789Y-92615285D01*
X110108784Y-92615278D01*
X110019247Y-92511946D01*
X110019243Y-92511942D01*
X110014566Y-92508937D01*
X109968810Y-92456134D01*
X109958866Y-92386975D01*
X109977294Y-92337573D01*
X109979121Y-92334727D01*
X109979130Y-92334718D01*
X110035931Y-92210342D01*
X110055390Y-92075000D01*
X110035931Y-91939658D01*
X109991722Y-91842854D01*
X109979132Y-91815285D01*
X109979127Y-91815278D01*
X109889590Y-91711946D01*
X109889587Y-91711943D01*
X109878386Y-91704745D01*
X109832632Y-91651941D01*
X109822688Y-91582783D01*
X109851713Y-91519227D01*
X109887860Y-91493163D01*
X109887585Y-91492751D01*
X109897739Y-91485966D01*
X109897740Y-91485966D01*
X109980601Y-91430601D01*
X110035966Y-91347740D01*
X110050500Y-91274674D01*
X110050500Y-90225326D01*
X110050500Y-90225323D01*
X110050499Y-90225321D01*
X110035967Y-90152264D01*
X110035966Y-90152260D01*
X110015999Y-90122377D01*
X109980601Y-90069399D01*
X109897740Y-90014034D01*
X109897739Y-90014033D01*
X109897735Y-90014032D01*
X109824677Y-89999500D01*
X109824674Y-89999500D01*
X108775326Y-89999500D01*
X108775323Y-89999500D01*
X108702264Y-90014032D01*
X108702260Y-90014033D01*
X108619399Y-90069399D01*
X108564033Y-90152260D01*
X108564032Y-90152264D01*
X108549500Y-90225321D01*
X108549500Y-91274678D01*
X108564032Y-91347735D01*
X108564033Y-91347739D01*
X108582405Y-91375235D01*
X108619399Y-91430601D01*
X108702260Y-91485966D01*
X108702264Y-91485967D01*
X108775321Y-91500499D01*
X108775324Y-91500500D01*
X108775326Y-91500500D01*
X108850500Y-91500500D01*
X108917539Y-91520185D01*
X108963294Y-91572989D01*
X108974500Y-91624500D01*
X108974500Y-91842854D01*
X108995816Y-91922409D01*
X108994153Y-91992259D01*
X108954989Y-92050121D01*
X108943080Y-92058817D01*
X108855155Y-92115322D01*
X108788115Y-92135006D01*
X108721076Y-92115321D01*
X108700435Y-92098687D01*
X108147248Y-91545500D01*
X107591819Y-90990070D01*
X107558334Y-90928747D01*
X107555500Y-90902389D01*
X107555500Y-89382150D01*
X107555500Y-89382147D01*
X107541077Y-89328318D01*
X107533318Y-89299361D01*
X107490465Y-89225138D01*
X107483171Y-89217844D01*
X108300000Y-89217844D01*
X108306401Y-89277372D01*
X108306403Y-89277379D01*
X108356645Y-89412086D01*
X108356649Y-89412093D01*
X108442809Y-89527187D01*
X108442812Y-89527190D01*
X108557906Y-89613350D01*
X108557913Y-89613354D01*
X108692620Y-89663596D01*
X108692627Y-89663598D01*
X108752155Y-89669999D01*
X108752172Y-89670000D01*
X109050000Y-89670000D01*
X109550000Y-89670000D01*
X109847828Y-89670000D01*
X109847844Y-89669999D01*
X109907372Y-89663598D01*
X109907379Y-89663596D01*
X110042086Y-89613354D01*
X110042093Y-89613350D01*
X110157187Y-89527190D01*
X110157190Y-89527187D01*
X110243350Y-89412093D01*
X110243354Y-89412086D01*
X110293596Y-89277379D01*
X110293598Y-89277372D01*
X110299999Y-89217844D01*
X110300000Y-89217827D01*
X110300000Y-88920000D01*
X109550000Y-88920000D01*
X109550000Y-89670000D01*
X109050000Y-89670000D01*
X109050000Y-88920000D01*
X108300000Y-88920000D01*
X108300000Y-89217844D01*
X107483171Y-89217844D01*
X107311819Y-89046492D01*
X107278334Y-88985169D01*
X107275500Y-88958811D01*
X107275500Y-88195323D01*
X107275499Y-88195321D01*
X107260967Y-88122264D01*
X107260966Y-88122260D01*
X107260896Y-88122155D01*
X108300000Y-88122155D01*
X108300000Y-88420000D01*
X109050000Y-88420000D01*
X109550000Y-88420000D01*
X110300000Y-88420000D01*
X110300000Y-88122172D01*
X110299999Y-88122155D01*
X110293598Y-88062627D01*
X110293596Y-88062620D01*
X110243354Y-87927913D01*
X110243350Y-87927906D01*
X110157190Y-87812812D01*
X110157187Y-87812809D01*
X110042093Y-87726649D01*
X110042086Y-87726645D01*
X109907379Y-87676403D01*
X109907372Y-87676401D01*
X109847844Y-87670000D01*
X109550000Y-87670000D01*
X109550000Y-88420000D01*
X109050000Y-88420000D01*
X109050000Y-87670000D01*
X108752155Y-87670000D01*
X108692627Y-87676401D01*
X108692620Y-87676403D01*
X108557913Y-87726645D01*
X108557906Y-87726649D01*
X108442812Y-87812809D01*
X108442809Y-87812812D01*
X108356649Y-87927906D01*
X108356645Y-87927913D01*
X108306403Y-88062620D01*
X108306401Y-88062627D01*
X108300000Y-88122155D01*
X107260896Y-88122155D01*
X107253003Y-88110342D01*
X107205601Y-88039399D01*
X107122740Y-87984034D01*
X107122739Y-87984033D01*
X107122735Y-87984032D01*
X107049677Y-87969500D01*
X107049674Y-87969500D01*
X106000326Y-87969500D01*
X106000323Y-87969500D01*
X105927264Y-87984032D01*
X105927260Y-87984033D01*
X105844399Y-88039399D01*
X105789033Y-88122260D01*
X105789032Y-88122264D01*
X105774500Y-88195321D01*
X105400500Y-88195321D01*
X105400500Y-81954500D01*
X105420185Y-81887461D01*
X105472989Y-81841706D01*
X105524500Y-81830500D01*
X106201190Y-81830500D01*
X106268229Y-81850185D01*
G37*
%TD.AperFunction*%
%TA.AperFunction,Conductor*%
G36*
X129128229Y-81850185D02*
G01*
X129173984Y-81902989D01*
X129183928Y-81972147D01*
X129154903Y-82035703D01*
X129119643Y-82063858D01*
X128990589Y-82132838D01*
X128990582Y-82132842D01*
X128832542Y-82262542D01*
X128702842Y-82420582D01*
X128702838Y-82420589D01*
X128606466Y-82600889D01*
X128547117Y-82796533D01*
X128527078Y-83000000D01*
X128547117Y-83203466D01*
X128606466Y-83399110D01*
X128702838Y-83579410D01*
X128702842Y-83579417D01*
X128832542Y-83737457D01*
X128990582Y-83867157D01*
X128990589Y-83867161D01*
X129033846Y-83890282D01*
X129170891Y-83963534D01*
X129366536Y-84022883D01*
X129570000Y-84042922D01*
X129773464Y-84022883D01*
X129773464Y-84022882D01*
X129778346Y-84022402D01*
X129846992Y-84035421D01*
X129897702Y-84083486D01*
X129914500Y-84145805D01*
X129914500Y-84553288D01*
X129894815Y-84620327D01*
X129884213Y-84634490D01*
X129835872Y-84690277D01*
X129835867Y-84690285D01*
X129779070Y-84814654D01*
X129779068Y-84814662D01*
X129759610Y-84950000D01*
X129779068Y-85085337D01*
X129779070Y-85085345D01*
X129835867Y-85209714D01*
X129835872Y-85209721D01*
X129925409Y-85313053D01*
X129925413Y-85313057D01*
X129951778Y-85330000D01*
X130040439Y-85386978D01*
X130106036Y-85406239D01*
X130171632Y-85425500D01*
X130287048Y-85425500D01*
X130354087Y-85445185D01*
X130399842Y-85497989D01*
X130409786Y-85567147D01*
X130391959Y-85691138D01*
X130391959Y-85763861D01*
X130393238Y-85772756D01*
X130394500Y-85790402D01*
X130394500Y-86164597D01*
X130393238Y-86182242D01*
X130391959Y-86191135D01*
X130391959Y-86263861D01*
X130412419Y-86406171D01*
X130432910Y-86475957D01*
X130492630Y-86606727D01*
X130492639Y-86606743D01*
X130531950Y-86667911D01*
X130531961Y-86667927D01*
X130626106Y-86776577D01*
X130681069Y-86824202D01*
X130802017Y-86901931D01*
X130802020Y-86901932D01*
X130802023Y-86901934D01*
X130868174Y-86932144D01*
X131006129Y-86972651D01*
X131078111Y-86983000D01*
X131078113Y-86983000D01*
X131700002Y-86983000D01*
X131801040Y-86962902D01*
X131849424Y-86962902D01*
X131925323Y-86978000D01*
X131925326Y-86978000D01*
X132974676Y-86978000D01*
X132974677Y-86977999D01*
X133047740Y-86963466D01*
X133130601Y-86908101D01*
X133185966Y-86825240D01*
X133200500Y-86752174D01*
X133200500Y-85202826D01*
X133200500Y-85202823D01*
X133200499Y-85202821D01*
X133185967Y-85129764D01*
X133185966Y-85129760D01*
X133130601Y-85046899D01*
X133047740Y-84991534D01*
X133047739Y-84991533D01*
X133047735Y-84991532D01*
X132974677Y-84977000D01*
X132974674Y-84977000D01*
X132899500Y-84977000D01*
X132832461Y-84957315D01*
X132786706Y-84904511D01*
X132778111Y-84865002D01*
X132776561Y-84865207D01*
X132775500Y-84857149D01*
X132775500Y-84857147D01*
X132753318Y-84774362D01*
X132753318Y-84774361D01*
X132710465Y-84700138D01*
X132243724Y-84233397D01*
X132210239Y-84172074D01*
X132215223Y-84102382D01*
X132257095Y-84046449D01*
X132308009Y-84026687D01*
X132307489Y-84024072D01*
X132313462Y-84022883D01*
X132313464Y-84022883D01*
X132509109Y-83963534D01*
X132689416Y-83867158D01*
X132847457Y-83737457D01*
X132977158Y-83579416D01*
X133073534Y-83399109D01*
X133132883Y-83203464D01*
X133152922Y-83000000D01*
X133132883Y-82796536D01*
X133073534Y-82600891D01*
X132977158Y-82420584D01*
X132977157Y-82420582D01*
X132847457Y-82262542D01*
X132689417Y-82132842D01*
X132689410Y-82132838D01*
X132560357Y-82063858D01*
X132510513Y-82014896D01*
X132495052Y-81946758D01*
X132518883Y-81881079D01*
X132574441Y-81838710D01*
X132618810Y-81830500D01*
X133584649Y-81830500D01*
X133651688Y-81850185D01*
X133697443Y-81902989D01*
X133707387Y-81972147D01*
X133687752Y-82023390D01*
X133682000Y-82031998D01*
X133681999Y-82031999D01*
X133661581Y-82062556D01*
X133626633Y-82114860D01*
X133626632Y-82114864D01*
X133612100Y-82187921D01*
X133612100Y-83812078D01*
X133626632Y-83885135D01*
X133626633Y-83885139D01*
X133645005Y-83912635D01*
X133681999Y-83968001D01*
X133751829Y-84014659D01*
X133764860Y-84023366D01*
X133764864Y-84023367D01*
X133837921Y-84037899D01*
X133837924Y-84037900D01*
X133837926Y-84037900D01*
X135462076Y-84037900D01*
X135462077Y-84037899D01*
X135535140Y-84023366D01*
X135618001Y-83968001D01*
X135673366Y-83885140D01*
X135687900Y-83812074D01*
X135687900Y-82187926D01*
X135687900Y-82187923D01*
X135687899Y-82187921D01*
X135673367Y-82114864D01*
X135673366Y-82114860D01*
X135639288Y-82063858D01*
X135618001Y-82031999D01*
X135617999Y-82031998D01*
X135612248Y-82023390D01*
X135591371Y-81956713D01*
X135609856Y-81889333D01*
X135661835Y-81842643D01*
X135715351Y-81830500D01*
X135875500Y-81830500D01*
X135942539Y-81850185D01*
X135988294Y-81902989D01*
X135999500Y-81954500D01*
X135999500Y-99305500D01*
X135979815Y-99372539D01*
X135927011Y-99418294D01*
X135875500Y-99429500D01*
X135121393Y-99429500D01*
X135054354Y-99409815D01*
X135008599Y-99357011D01*
X134998655Y-99287853D01*
X135027680Y-99224297D01*
X135062940Y-99196142D01*
X135229410Y-99107161D01*
X135229416Y-99107158D01*
X135387457Y-98977457D01*
X135517158Y-98819416D01*
X135613534Y-98639109D01*
X135672883Y-98443464D01*
X135692922Y-98240000D01*
X135672883Y-98036536D01*
X135613534Y-97840891D01*
X135517158Y-97660584D01*
X135517157Y-97660582D01*
X135387457Y-97502542D01*
X135229417Y-97372842D01*
X135229410Y-97372838D01*
X135049110Y-97276466D01*
X134853466Y-97217117D01*
X134650000Y-97197078D01*
X134446533Y-97217117D01*
X134250889Y-97276466D01*
X134070589Y-97372838D01*
X134070582Y-97372842D01*
X133912542Y-97502542D01*
X133782842Y-97660582D01*
X133782838Y-97660589D01*
X133686466Y-97840889D01*
X133625348Y-98042366D01*
X133622908Y-98041625D01*
X133595653Y-98093681D01*
X133534923Y-98128232D01*
X133465155Y-98124465D01*
X133408499Y-98083576D01*
X133383858Y-98020878D01*
X133383624Y-98020920D01*
X133383419Y-98019760D01*
X133382943Y-98018548D01*
X133382925Y-98018346D01*
X133382683Y-98015587D01*
X133382683Y-98015585D01*
X133324384Y-97798008D01*
X133324381Y-97797999D01*
X133229180Y-97593842D01*
X133229179Y-97593840D01*
X133179978Y-97523574D01*
X133179978Y-97523573D01*
X132558016Y-98145536D01*
X132536042Y-98063527D01*
X132475851Y-97959273D01*
X132390727Y-97874149D01*
X132286473Y-97813958D01*
X132204463Y-97791983D01*
X132826425Y-97170021D01*
X132826424Y-97170020D01*
X132756159Y-97120820D01*
X132756157Y-97120819D01*
X132552000Y-97025618D01*
X132551991Y-97025615D01*
X132334414Y-96967316D01*
X132334403Y-96967314D01*
X132110002Y-96947682D01*
X132109998Y-96947682D01*
X131885596Y-96967314D01*
X131885585Y-96967316D01*
X131668008Y-97025615D01*
X131667999Y-97025618D01*
X131463838Y-97120821D01*
X131393573Y-97170019D01*
X132015537Y-97791983D01*
X131933527Y-97813958D01*
X131829273Y-97874149D01*
X131744149Y-97959273D01*
X131683958Y-98063527D01*
X131661983Y-98145537D01*
X131040019Y-97523573D01*
X130990821Y-97593838D01*
X130895618Y-97797999D01*
X130895615Y-97798008D01*
X130837316Y-98015585D01*
X130837313Y-98015602D01*
X130837072Y-98018361D01*
X130836626Y-98019500D01*
X130836376Y-98020920D01*
X130836090Y-98020869D01*
X130811615Y-98083427D01*
X130755021Y-98124402D01*
X130685259Y-98128275D01*
X130624477Y-98093816D01*
X130597055Y-98041636D01*
X130594652Y-98042366D01*
X130533533Y-97840889D01*
X130437161Y-97660589D01*
X130437157Y-97660582D01*
X130307457Y-97502542D01*
X130149417Y-97372842D01*
X130149410Y-97372838D01*
X129969110Y-97276466D01*
X129773466Y-97217117D01*
X129570000Y-97197078D01*
X129366533Y-97217117D01*
X129170889Y-97276466D01*
X128990589Y-97372838D01*
X128990582Y-97372842D01*
X128832542Y-97502542D01*
X128702842Y-97660582D01*
X128702838Y-97660589D01*
X128606466Y-97840889D01*
X128547117Y-98036533D01*
X128527078Y-98240000D01*
X128547117Y-98443466D01*
X128606466Y-98639110D01*
X128702838Y-98819410D01*
X128702842Y-98819417D01*
X128832542Y-98977457D01*
X128990582Y-99107157D01*
X128990589Y-99107161D01*
X129157060Y-99196142D01*
X129206904Y-99245104D01*
X129222365Y-99313242D01*
X129198533Y-99378921D01*
X129142976Y-99421290D01*
X129098607Y-99429500D01*
X127501393Y-99429500D01*
X127434354Y-99409815D01*
X127388599Y-99357011D01*
X127378655Y-99287853D01*
X127407680Y-99224297D01*
X127442940Y-99196142D01*
X127609410Y-99107161D01*
X127609416Y-99107158D01*
X127767457Y-98977457D01*
X127897158Y-98819416D01*
X127993534Y-98639109D01*
X128052883Y-98443464D01*
X128072922Y-98240000D01*
X128052883Y-98036536D01*
X127993534Y-97840891D01*
X127897158Y-97660584D01*
X127897157Y-97660582D01*
X127767457Y-97502542D01*
X127609417Y-97372842D01*
X127609410Y-97372838D01*
X127429110Y-97276466D01*
X127233466Y-97217117D01*
X127030000Y-97197078D01*
X126826533Y-97217117D01*
X126630889Y-97276466D01*
X126450589Y-97372838D01*
X126450582Y-97372842D01*
X126292542Y-97502542D01*
X126162842Y-97660582D01*
X126162838Y-97660589D01*
X126066466Y-97840889D01*
X126007117Y-98036533D01*
X125987078Y-98240000D01*
X126007117Y-98443466D01*
X126066466Y-98639110D01*
X126162838Y-98819410D01*
X126162842Y-98819417D01*
X126292542Y-98977457D01*
X126450582Y-99107157D01*
X126450589Y-99107161D01*
X126617060Y-99196142D01*
X126666904Y-99245104D01*
X126682365Y-99313242D01*
X126658533Y-99378921D01*
X126602976Y-99421290D01*
X126558607Y-99429500D01*
X124961393Y-99429500D01*
X124894354Y-99409815D01*
X124848599Y-99357011D01*
X124838655Y-99287853D01*
X124867680Y-99224297D01*
X124902940Y-99196142D01*
X125069410Y-99107161D01*
X125069416Y-99107158D01*
X125227457Y-98977457D01*
X125357158Y-98819416D01*
X125453534Y-98639109D01*
X125512883Y-98443464D01*
X125532922Y-98240000D01*
X125512883Y-98036536D01*
X125453534Y-97840891D01*
X125357158Y-97660584D01*
X125357157Y-97660582D01*
X125227457Y-97502542D01*
X125069417Y-97372842D01*
X125069410Y-97372838D01*
X124889110Y-97276466D01*
X124693466Y-97217117D01*
X124490000Y-97197078D01*
X124286533Y-97217117D01*
X124090889Y-97276466D01*
X123910589Y-97372838D01*
X123910582Y-97372842D01*
X123752542Y-97502542D01*
X123622842Y-97660582D01*
X123622838Y-97660589D01*
X123526466Y-97840889D01*
X123467117Y-98036533D01*
X123447078Y-98240000D01*
X123467117Y-98443466D01*
X123526466Y-98639110D01*
X123622838Y-98819410D01*
X123622842Y-98819417D01*
X123752542Y-98977457D01*
X123910582Y-99107157D01*
X123910589Y-99107161D01*
X124077060Y-99196142D01*
X124126904Y-99245104D01*
X124142365Y-99313242D01*
X124118533Y-99378921D01*
X124062976Y-99421290D01*
X124018607Y-99429500D01*
X122421393Y-99429500D01*
X122354354Y-99409815D01*
X122308599Y-99357011D01*
X122298655Y-99287853D01*
X122327680Y-99224297D01*
X122362940Y-99196142D01*
X122529410Y-99107161D01*
X122529416Y-99107158D01*
X122687457Y-98977457D01*
X122817158Y-98819416D01*
X122913534Y-98639109D01*
X122972883Y-98443464D01*
X122992922Y-98240000D01*
X122972883Y-98036536D01*
X122913534Y-97840891D01*
X122817158Y-97660584D01*
X122817157Y-97660582D01*
X122687457Y-97502542D01*
X122529417Y-97372842D01*
X122529410Y-97372838D01*
X122349110Y-97276466D01*
X122153466Y-97217117D01*
X121950000Y-97197078D01*
X121746533Y-97217117D01*
X121550889Y-97276466D01*
X121370589Y-97372838D01*
X121370582Y-97372842D01*
X121212542Y-97502542D01*
X121082842Y-97660582D01*
X121082838Y-97660589D01*
X120986466Y-97840889D01*
X120927117Y-98036533D01*
X120907078Y-98240000D01*
X120927117Y-98443466D01*
X120986466Y-98639110D01*
X121082838Y-98819410D01*
X121082842Y-98819417D01*
X121212542Y-98977457D01*
X121370582Y-99107157D01*
X121370589Y-99107161D01*
X121537060Y-99196142D01*
X121586904Y-99245104D01*
X121602365Y-99313242D01*
X121578533Y-99378921D01*
X121522976Y-99421290D01*
X121478607Y-99429500D01*
X119881393Y-99429500D01*
X119814354Y-99409815D01*
X119768599Y-99357011D01*
X119758655Y-99287853D01*
X119787680Y-99224297D01*
X119822940Y-99196142D01*
X119989410Y-99107161D01*
X119989416Y-99107158D01*
X120147457Y-98977457D01*
X120277158Y-98819416D01*
X120373534Y-98639109D01*
X120432883Y-98443464D01*
X120452922Y-98240000D01*
X120432883Y-98036536D01*
X120373534Y-97840891D01*
X120277158Y-97660584D01*
X120277157Y-97660582D01*
X120147457Y-97502542D01*
X119989417Y-97372842D01*
X119989410Y-97372838D01*
X119809110Y-97276466D01*
X119613466Y-97217117D01*
X119410000Y-97197078D01*
X119206533Y-97217117D01*
X119010889Y-97276466D01*
X118830589Y-97372838D01*
X118830582Y-97372842D01*
X118672542Y-97502542D01*
X118542842Y-97660582D01*
X118542838Y-97660589D01*
X118446466Y-97840889D01*
X118387117Y-98036533D01*
X118367078Y-98240000D01*
X118387117Y-98443466D01*
X118446466Y-98639110D01*
X118542838Y-98819410D01*
X118542842Y-98819417D01*
X118672542Y-98977457D01*
X118830582Y-99107157D01*
X118830589Y-99107161D01*
X118997060Y-99196142D01*
X119046904Y-99245104D01*
X119062365Y-99313242D01*
X119038533Y-99378921D01*
X118982976Y-99421290D01*
X118938607Y-99429500D01*
X117341393Y-99429500D01*
X117274354Y-99409815D01*
X117228599Y-99357011D01*
X117218655Y-99287853D01*
X117247680Y-99224297D01*
X117282940Y-99196142D01*
X117449410Y-99107161D01*
X117449416Y-99107158D01*
X117607457Y-98977457D01*
X117737158Y-98819416D01*
X117833534Y-98639109D01*
X117892883Y-98443464D01*
X117912922Y-98240000D01*
X117892883Y-98036536D01*
X117833534Y-97840891D01*
X117737158Y-97660584D01*
X117737157Y-97660582D01*
X117607457Y-97502542D01*
X117449417Y-97372842D01*
X117449410Y-97372838D01*
X117269110Y-97276466D01*
X117073466Y-97217117D01*
X116870000Y-97197078D01*
X116666533Y-97217117D01*
X116470889Y-97276466D01*
X116290589Y-97372838D01*
X116290582Y-97372842D01*
X116132542Y-97502542D01*
X116002842Y-97660582D01*
X116002838Y-97660589D01*
X115906466Y-97840889D01*
X115847117Y-98036533D01*
X115827078Y-98240000D01*
X115847117Y-98443466D01*
X115906466Y-98639110D01*
X116002838Y-98819410D01*
X116002842Y-98819417D01*
X116132542Y-98977457D01*
X116290582Y-99107157D01*
X116290589Y-99107161D01*
X116457060Y-99196142D01*
X116506904Y-99245104D01*
X116522365Y-99313242D01*
X116498533Y-99378921D01*
X116442976Y-99421290D01*
X116398607Y-99429500D01*
X114801393Y-99429500D01*
X114734354Y-99409815D01*
X114688599Y-99357011D01*
X114678655Y-99287853D01*
X114707680Y-99224297D01*
X114742940Y-99196142D01*
X114909410Y-99107161D01*
X114909416Y-99107158D01*
X115067457Y-98977457D01*
X115197158Y-98819416D01*
X115293534Y-98639109D01*
X115352883Y-98443464D01*
X115372922Y-98240000D01*
X115352883Y-98036536D01*
X115293534Y-97840891D01*
X115197158Y-97660584D01*
X115197157Y-97660582D01*
X115067457Y-97502542D01*
X114909417Y-97372842D01*
X114909410Y-97372838D01*
X114729110Y-97276466D01*
X114533466Y-97217117D01*
X114330000Y-97197078D01*
X114126533Y-97217117D01*
X113925062Y-97278234D01*
X113924464Y-97276265D01*
X113864312Y-97282708D01*
X113801845Y-97251409D01*
X113798695Y-97248368D01*
X113437508Y-96887181D01*
X113404023Y-96825858D01*
X113409007Y-96756166D01*
X113450879Y-96700233D01*
X113516343Y-96675816D01*
X113525189Y-96675500D01*
X117133537Y-96675500D01*
X117133539Y-96675500D01*
X117216325Y-96653318D01*
X117290548Y-96610465D01*
X117714194Y-96186819D01*
X117775517Y-96153334D01*
X117801875Y-96150500D01*
X119949596Y-96150500D01*
X120016635Y-96170185D01*
X120037277Y-96186819D01*
X120324531Y-96474072D01*
X120324541Y-96474083D01*
X120328871Y-96478413D01*
X120328872Y-96478414D01*
X120470988Y-96620530D01*
X120470998Y-96620541D01*
X120535923Y-96685466D01*
X120553243Y-96695465D01*
X120553245Y-96695467D01*
X120596448Y-96720410D01*
X120610144Y-96728318D01*
X120692930Y-96750500D01*
X120778636Y-96750501D01*
X120778640Y-96750500D01*
X123606363Y-96750500D01*
X123692069Y-96750500D01*
X123774855Y-96728318D01*
X123849078Y-96685465D01*
X123997724Y-96536819D01*
X124059047Y-96503334D01*
X124085405Y-96500500D01*
X125663513Y-96500500D01*
X125663515Y-96500500D01*
X125746301Y-96478318D01*
X125820524Y-96435465D01*
X125964170Y-96291819D01*
X126025493Y-96258334D01*
X126051851Y-96255500D01*
X128870883Y-96255500D01*
X128905818Y-96260523D01*
X129041968Y-96300500D01*
X129041969Y-96300500D01*
X129178703Y-96300500D01*
X129309897Y-96261978D01*
X129424925Y-96188055D01*
X129514466Y-96084718D01*
X129519133Y-96074500D01*
X129544261Y-96019477D01*
X129571267Y-95960342D01*
X129590726Y-95825000D01*
X129589445Y-95816090D01*
X129599386Y-95746931D01*
X129645140Y-95694126D01*
X129650151Y-95691071D01*
X129659862Y-95685465D01*
X129808508Y-95536819D01*
X129869831Y-95503334D01*
X129896189Y-95500500D01*
X130659676Y-95500500D01*
X130659677Y-95500499D01*
X130732740Y-95485966D01*
X130815601Y-95430601D01*
X130870966Y-95347740D01*
X130885500Y-95274674D01*
X130885500Y-94225326D01*
X130885500Y-94225323D01*
X130885499Y-94225321D01*
X130870967Y-94152264D01*
X130870966Y-94152260D01*
X130869251Y-94149694D01*
X130815601Y-94069399D01*
X130732740Y-94014034D01*
X130732739Y-94014033D01*
X130732735Y-94014032D01*
X130659677Y-93999500D01*
X130659674Y-93999500D01*
X129610326Y-93999500D01*
X129610323Y-93999500D01*
X129537264Y-94014032D01*
X129537260Y-94014033D01*
X129454399Y-94069399D01*
X129399033Y-94152260D01*
X129399032Y-94152264D01*
X129384500Y-94225321D01*
X129384500Y-94975500D01*
X129364815Y-95042539D01*
X129312011Y-95088294D01*
X129260500Y-95099500D01*
X128934500Y-95099500D01*
X128867461Y-95079815D01*
X128821706Y-95027011D01*
X128810500Y-94975500D01*
X128810500Y-94225323D01*
X128810499Y-94225321D01*
X128795967Y-94152264D01*
X128795966Y-94152260D01*
X128794251Y-94149694D01*
X128740601Y-94069399D01*
X128657740Y-94014034D01*
X128657739Y-94014033D01*
X128657735Y-94014032D01*
X128584677Y-93999500D01*
X128584674Y-93999500D01*
X127535326Y-93999500D01*
X127535323Y-93999500D01*
X127462264Y-94014032D01*
X127462260Y-94014033D01*
X127379399Y-94069399D01*
X127324033Y-94152260D01*
X127324032Y-94152264D01*
X127309500Y-94225321D01*
X127309500Y-94980500D01*
X127289815Y-95047539D01*
X127237011Y-95093294D01*
X127185500Y-95104500D01*
X126859500Y-95104500D01*
X126792461Y-95084815D01*
X126746706Y-95032011D01*
X126735500Y-94980500D01*
X126735500Y-94225323D01*
X126735499Y-94225321D01*
X126720967Y-94152264D01*
X126720966Y-94152260D01*
X126719251Y-94149694D01*
X126665601Y-94069399D01*
X126582740Y-94014034D01*
X126582739Y-94014033D01*
X126582735Y-94014032D01*
X126509677Y-93999500D01*
X126509674Y-93999500D01*
X125460326Y-93999500D01*
X125460323Y-93999500D01*
X125387264Y-94014032D01*
X125387260Y-94014033D01*
X125304399Y-94069399D01*
X125249033Y-94152260D01*
X125249032Y-94152264D01*
X125234500Y-94225321D01*
X125234500Y-94975500D01*
X125214815Y-95042539D01*
X125162011Y-95088294D01*
X125110500Y-95099500D01*
X124784500Y-95099500D01*
X124717461Y-95079815D01*
X124671706Y-95027011D01*
X124660500Y-94975500D01*
X124660500Y-94225323D01*
X124660499Y-94225321D01*
X124645967Y-94152264D01*
X124645966Y-94152260D01*
X124644251Y-94149694D01*
X124590601Y-94069399D01*
X124507740Y-94014034D01*
X124507739Y-94014033D01*
X124507735Y-94014032D01*
X124434677Y-93999500D01*
X124434674Y-93999500D01*
X123385326Y-93999500D01*
X123385323Y-93999500D01*
X123312264Y-94014032D01*
X123312260Y-94014033D01*
X123229399Y-94069399D01*
X123174033Y-94152260D01*
X123174032Y-94152264D01*
X123159500Y-94225321D01*
X123159500Y-94975500D01*
X123139815Y-95042539D01*
X123087011Y-95088294D01*
X123035500Y-95099500D01*
X122699500Y-95099500D01*
X122632461Y-95079815D01*
X122586706Y-95027011D01*
X122575500Y-94975500D01*
X122575500Y-94225323D01*
X122575499Y-94225321D01*
X122560967Y-94152264D01*
X122560966Y-94152260D01*
X122559251Y-94149694D01*
X122505601Y-94069399D01*
X122422740Y-94014034D01*
X122422739Y-94014033D01*
X122422735Y-94014032D01*
X122349677Y-93999500D01*
X122349674Y-93999500D01*
X121945247Y-93999500D01*
X121878208Y-93979815D01*
X121832453Y-93927011D01*
X121822509Y-93857853D01*
X121830686Y-93828048D01*
X121842752Y-93798914D01*
X121886330Y-93693709D01*
X121905250Y-93550000D01*
X121886330Y-93406291D01*
X121830861Y-93272375D01*
X121742621Y-93157379D01*
X121627625Y-93069139D01*
X121627623Y-93069138D01*
X121563909Y-93042747D01*
X121523681Y-93015867D01*
X121282316Y-92774502D01*
X121282314Y-92774500D01*
X121218249Y-92737512D01*
X121168187Y-92708608D01*
X121091357Y-92688022D01*
X121040892Y-92674500D01*
X121040891Y-92674500D01*
X116478707Y-92674500D01*
X116431255Y-92665061D01*
X116348712Y-92630871D01*
X116348710Y-92630870D01*
X116348709Y-92630870D01*
X116276854Y-92621410D01*
X116205001Y-92611950D01*
X116204999Y-92611950D01*
X116061291Y-92630870D01*
X116061287Y-92630871D01*
X115919866Y-92689449D01*
X115918767Y-92686795D01*
X115871354Y-92699500D01*
X115508675Y-92699500D01*
X115441636Y-92679815D01*
X115420994Y-92663181D01*
X115177087Y-92419273D01*
X115143602Y-92357950D01*
X115140768Y-92331592D01*
X115140768Y-90997143D01*
X115150207Y-90949690D01*
X115158882Y-90928747D01*
X115176598Y-90885977D01*
X115195518Y-90742268D01*
X115176598Y-90598559D01*
X115122991Y-90469139D01*
X115121130Y-90464645D01*
X115121129Y-90464644D01*
X115121129Y-90464643D01*
X115032889Y-90349647D01*
X114917893Y-90261407D01*
X114917892Y-90261406D01*
X114917890Y-90261405D01*
X114783980Y-90205939D01*
X114783978Y-90205938D01*
X114783977Y-90205938D01*
X114712122Y-90196478D01*
X114640269Y-90187018D01*
X114640267Y-90187018D01*
X114496559Y-90205938D01*
X114496555Y-90205939D01*
X114362645Y-90261405D01*
X114247647Y-90349647D01*
X114159405Y-90464645D01*
X114103939Y-90598555D01*
X114103938Y-90598559D01*
X114085018Y-90742267D01*
X114085018Y-90742268D01*
X114103938Y-90885976D01*
X114103938Y-90885977D01*
X114130329Y-90949690D01*
X114139768Y-90997143D01*
X114139768Y-92524376D01*
X114139768Y-92656160D01*
X114147977Y-92686795D01*
X114173876Y-92783455D01*
X114187063Y-92806295D01*
X114239768Y-92897582D01*
X114543695Y-93201509D01*
X114845159Y-93502972D01*
X114845169Y-93502983D01*
X114849499Y-93507313D01*
X114849500Y-93507314D01*
X114942686Y-93600500D01*
X115013513Y-93641392D01*
X115013514Y-93641393D01*
X115056808Y-93666389D01*
X115056809Y-93666389D01*
X115056814Y-93666392D01*
X115184107Y-93700500D01*
X115184108Y-93700500D01*
X116033659Y-93700500D01*
X116053155Y-93703066D01*
X116053234Y-93702469D01*
X116061290Y-93703529D01*
X116061291Y-93703530D01*
X116153474Y-93715666D01*
X116204999Y-93722450D01*
X116205000Y-93722450D01*
X116205001Y-93722450D01*
X116219977Y-93720478D01*
X116348709Y-93703530D01*
X116393592Y-93684938D01*
X116441044Y-93675500D01*
X120716324Y-93675500D01*
X120783363Y-93695185D01*
X120804005Y-93711819D01*
X120815867Y-93723681D01*
X120842747Y-93763909D01*
X120869139Y-93827625D01*
X120957379Y-93942621D01*
X121047688Y-94011918D01*
X121088889Y-94068344D01*
X121093044Y-94138090D01*
X121089888Y-94147961D01*
X121089544Y-94149694D01*
X121089006Y-94150721D01*
X121086765Y-94157734D01*
X121084364Y-94163532D01*
X121082671Y-94162831D01*
X121057157Y-94211604D01*
X120996441Y-94246177D01*
X120967927Y-94249500D01*
X114882147Y-94249500D01*
X114799362Y-94271682D01*
X114799355Y-94271685D01*
X114725144Y-94314530D01*
X114725136Y-94314536D01*
X114576492Y-94463181D01*
X114515169Y-94496666D01*
X114488811Y-94499500D01*
X114456632Y-94499500D01*
X114325440Y-94538021D01*
X114210413Y-94611942D01*
X114210409Y-94611946D01*
X114120872Y-94715278D01*
X114120867Y-94715285D01*
X114064070Y-94839654D01*
X114064068Y-94839662D01*
X114044610Y-94975000D01*
X114064068Y-95110337D01*
X114064070Y-95110345D01*
X114120867Y-95234714D01*
X114120872Y-95234721D01*
X114210409Y-95338053D01*
X114210413Y-95338057D01*
X114325441Y-95411979D01*
X114447413Y-95447793D01*
X114506192Y-95485567D01*
X114525273Y-95515258D01*
X114570869Y-95615097D01*
X114570872Y-95615102D01*
X114660409Y-95718434D01*
X114660411Y-95718436D01*
X114775439Y-95792359D01*
X114775440Y-95792359D01*
X114781392Y-95796184D01*
X114827147Y-95848988D01*
X114837091Y-95918146D01*
X114808067Y-95981702D01*
X114749289Y-96019477D01*
X114714353Y-96024500D01*
X113224500Y-96024500D01*
X113157461Y-96004815D01*
X113111706Y-95952011D01*
X113100500Y-95900500D01*
X113100500Y-90376875D01*
X113120185Y-90309836D01*
X113136819Y-90289194D01*
X113426513Y-89999500D01*
X113716882Y-89709131D01*
X113759735Y-89634908D01*
X113781917Y-89552122D01*
X113781917Y-89466416D01*
X113781917Y-89135044D01*
X113768004Y-89083118D01*
X113759735Y-89052258D01*
X113716882Y-88978035D01*
X113586819Y-88847972D01*
X113553334Y-88786649D01*
X113550500Y-88760291D01*
X113550500Y-87880092D01*
X115589550Y-87880092D01*
X115607438Y-88015966D01*
X115608470Y-88023800D01*
X115608471Y-88023804D01*
X115663937Y-88157714D01*
X115663938Y-88157716D01*
X115663939Y-88157717D01*
X115752179Y-88272713D01*
X115867175Y-88360953D01*
X116001091Y-88416422D01*
X116128080Y-88433140D01*
X116144799Y-88435342D01*
X116144800Y-88435342D01*
X116144801Y-88435342D01*
X116159777Y-88433370D01*
X116288509Y-88416422D01*
X116378214Y-88379265D01*
X116424874Y-88359939D01*
X116472326Y-88350500D01*
X119084296Y-88350500D01*
X119151335Y-88370185D01*
X119159767Y-88376113D01*
X119268607Y-88459629D01*
X119332321Y-88486019D01*
X119372549Y-88512899D01*
X119463181Y-88603531D01*
X119496666Y-88664854D01*
X119499500Y-88691212D01*
X119499500Y-90084108D01*
X119499500Y-90215892D01*
X119502027Y-90225323D01*
X119533608Y-90343187D01*
X119563379Y-90394750D01*
X119599500Y-90457314D01*
X120399500Y-91257314D01*
X120492686Y-91350500D01*
X120606814Y-91416392D01*
X120734108Y-91450500D01*
X122261324Y-91450500D01*
X122328363Y-91470185D01*
X122349005Y-91486819D01*
X122469500Y-91607314D01*
X122562686Y-91700500D01*
X122676814Y-91766392D01*
X122804108Y-91800500D01*
X122818037Y-91800500D01*
X122885076Y-91820185D01*
X122930831Y-91872989D01*
X122940976Y-91940684D01*
X122939750Y-91949997D01*
X122939750Y-91950000D01*
X122943439Y-91978020D01*
X122944500Y-91994206D01*
X122944500Y-92022476D01*
X122951817Y-92049786D01*
X122954980Y-92065685D01*
X122958670Y-92093709D01*
X122966223Y-92111945D01*
X122969485Y-92119819D01*
X122974697Y-92135173D01*
X122982015Y-92162483D01*
X122982018Y-92162489D01*
X122996147Y-92186962D01*
X123003319Y-92201505D01*
X123014138Y-92227625D01*
X123031348Y-92250053D01*
X123040357Y-92263536D01*
X123054491Y-92288015D01*
X123074482Y-92308006D01*
X123085172Y-92320196D01*
X123102378Y-92342620D01*
X123114111Y-92351623D01*
X123155314Y-92408051D01*
X123159469Y-92477797D01*
X123125257Y-92538717D01*
X123114119Y-92548369D01*
X123102379Y-92557378D01*
X123085172Y-92579802D01*
X123074484Y-92591990D01*
X123054488Y-92611986D01*
X123040350Y-92636472D01*
X123031348Y-92649945D01*
X123014138Y-92672375D01*
X123014138Y-92672376D01*
X123003319Y-92698493D01*
X122996151Y-92713028D01*
X122982017Y-92737512D01*
X122974699Y-92764820D01*
X122969489Y-92780168D01*
X122958668Y-92806294D01*
X122958668Y-92806295D01*
X122954978Y-92834318D01*
X122951816Y-92850216D01*
X122944500Y-92877520D01*
X122944500Y-92905793D01*
X122943439Y-92921978D01*
X122939750Y-92949998D01*
X122939750Y-92950000D01*
X122943439Y-92978020D01*
X122944500Y-92994206D01*
X122944500Y-93022474D01*
X122951817Y-93049785D01*
X122954979Y-93065678D01*
X122958670Y-93093708D01*
X122969485Y-93119819D01*
X122974697Y-93135173D01*
X122982014Y-93162480D01*
X122982015Y-93162482D01*
X122982016Y-93162485D01*
X122996156Y-93186977D01*
X123003321Y-93201509D01*
X123014139Y-93227625D01*
X123014141Y-93227628D01*
X123014142Y-93227629D01*
X123031347Y-93250052D01*
X123040356Y-93263535D01*
X123054490Y-93288015D01*
X123074485Y-93308010D01*
X123085175Y-93320200D01*
X123099926Y-93339425D01*
X123102379Y-93342621D01*
X123124794Y-93359821D01*
X123124800Y-93359825D01*
X123136995Y-93370520D01*
X123156985Y-93390510D01*
X123181464Y-93404643D01*
X123194951Y-93413654D01*
X123217375Y-93430861D01*
X123243491Y-93441678D01*
X123258031Y-93448848D01*
X123282515Y-93462984D01*
X123309818Y-93470299D01*
X123325174Y-93475512D01*
X123325179Y-93475514D01*
X123351291Y-93486330D01*
X123379313Y-93490019D01*
X123395217Y-93493182D01*
X123422526Y-93500500D01*
X123450794Y-93500500D01*
X123466980Y-93501561D01*
X123494999Y-93505250D01*
X123495000Y-93505250D01*
X123495001Y-93505250D01*
X123523020Y-93501561D01*
X123539206Y-93500500D01*
X123567473Y-93500500D01*
X123567474Y-93500500D01*
X123594785Y-93493181D01*
X123610684Y-93490019D01*
X123638709Y-93486330D01*
X123664827Y-93475510D01*
X123680179Y-93470299D01*
X123707485Y-93462984D01*
X123731968Y-93448848D01*
X123746506Y-93441679D01*
X123772625Y-93430861D01*
X123795053Y-93413650D01*
X123808526Y-93404648D01*
X123833015Y-93390510D01*
X123853012Y-93370511D01*
X123865198Y-93359825D01*
X123887621Y-93342621D01*
X123887623Y-93342619D01*
X123893369Y-93336874D01*
X123895920Y-93339425D01*
X123938873Y-93307909D01*
X123981092Y-93300500D01*
X129453386Y-93300500D01*
X129453388Y-93300500D01*
X129453389Y-93300500D01*
X129593399Y-93262984D01*
X129614777Y-93250640D01*
X129614781Y-93250640D01*
X129614781Y-93250639D01*
X129636577Y-93238055D01*
X129718929Y-93190510D01*
X131126424Y-91783015D01*
X131198898Y-91657485D01*
X131236414Y-91517474D01*
X131236414Y-91372526D01*
X131198898Y-91232515D01*
X131126424Y-91106985D01*
X131023929Y-91004490D01*
X130926204Y-90948069D01*
X130877989Y-90897503D01*
X130864765Y-90828896D01*
X130890733Y-90764031D01*
X130900510Y-90753014D01*
X130995510Y-90658015D01*
X131067984Y-90532485D01*
X131105500Y-90392474D01*
X131105500Y-90247526D01*
X131067984Y-90107515D01*
X130995510Y-89981985D01*
X130893015Y-89879490D01*
X130767485Y-89807016D01*
X130767486Y-89807016D01*
X130732482Y-89797637D01*
X130627474Y-89769500D01*
X130482526Y-89769500D01*
X130377517Y-89797637D01*
X130342514Y-89807016D01*
X130216986Y-89879489D01*
X130216983Y-89879491D01*
X128733294Y-91363181D01*
X128671971Y-91396666D01*
X128645613Y-91399500D01*
X125786963Y-91399500D01*
X125719924Y-91379815D01*
X125674169Y-91327011D01*
X125664024Y-91259315D01*
X125665250Y-91250002D01*
X125665250Y-91249999D01*
X125658943Y-91202097D01*
X125646330Y-91106291D01*
X125619937Y-91042572D01*
X125610500Y-90995124D01*
X125610500Y-90658675D01*
X125630185Y-90591636D01*
X125646813Y-90570999D01*
X125788598Y-90429214D01*
X125828820Y-90402339D01*
X125892538Y-90375948D01*
X126007534Y-90287708D01*
X126095774Y-90172712D01*
X126151243Y-90038796D01*
X126170163Y-89895087D01*
X126164719Y-89853741D01*
X126175484Y-89784708D01*
X126180257Y-89775579D01*
X126203318Y-89735639D01*
X126225500Y-89652853D01*
X126225500Y-89567147D01*
X126225500Y-87687907D01*
X126221870Y-87674361D01*
X126208979Y-87626248D01*
X126203319Y-87605123D01*
X126203318Y-87605122D01*
X126203318Y-87605121D01*
X126160465Y-87530898D01*
X125569102Y-86939535D01*
X125531990Y-86918108D01*
X125494880Y-86896682D01*
X125453486Y-86885591D01*
X125412093Y-86874500D01*
X125412092Y-86874500D01*
X124399500Y-86874500D01*
X124332461Y-86854815D01*
X124286706Y-86802011D01*
X124275500Y-86750500D01*
X124275499Y-86027129D01*
X124275498Y-86027123D01*
X124275497Y-86027116D01*
X124269091Y-85967517D01*
X124243722Y-85899500D01*
X124218797Y-85832671D01*
X124218793Y-85832664D01*
X124132547Y-85717455D01*
X124132544Y-85717452D01*
X124017335Y-85631206D01*
X124017328Y-85631202D01*
X123882482Y-85580908D01*
X123882483Y-85580908D01*
X123822883Y-85574501D01*
X123822881Y-85574500D01*
X123822873Y-85574500D01*
X123822864Y-85574500D01*
X123027129Y-85574500D01*
X123027123Y-85574501D01*
X122967516Y-85580908D01*
X122832671Y-85631202D01*
X122832664Y-85631206D01*
X122717455Y-85717452D01*
X122717452Y-85717455D01*
X122631206Y-85832664D01*
X122631202Y-85832671D01*
X122580908Y-85967517D01*
X122574501Y-86027116D01*
X122574501Y-86027123D01*
X122574500Y-86027135D01*
X122574500Y-86375500D01*
X122554815Y-86442539D01*
X122502011Y-86488294D01*
X122450500Y-86499500D01*
X122399499Y-86499500D01*
X122332460Y-86479815D01*
X122286705Y-86427011D01*
X122275499Y-86375500D01*
X122275499Y-86027129D01*
X122275498Y-86027123D01*
X122275497Y-86027116D01*
X122269091Y-85967517D01*
X122243722Y-85899500D01*
X122218797Y-85832671D01*
X122218793Y-85832664D01*
X122132547Y-85717455D01*
X122132544Y-85717452D01*
X122017335Y-85631206D01*
X122017328Y-85631202D01*
X121882482Y-85580908D01*
X121882483Y-85580908D01*
X121822883Y-85574501D01*
X121822881Y-85574500D01*
X121822873Y-85574500D01*
X121822864Y-85574500D01*
X121027129Y-85574500D01*
X121027123Y-85574501D01*
X120967516Y-85580908D01*
X120832671Y-85631202D01*
X120832664Y-85631206D01*
X120717455Y-85717452D01*
X120717452Y-85717455D01*
X120631206Y-85832664D01*
X120631202Y-85832671D01*
X120580908Y-85967517D01*
X120574501Y-86027116D01*
X120574501Y-86027123D01*
X120574500Y-86027135D01*
X120574500Y-87022870D01*
X120574501Y-87022876D01*
X120580908Y-87082483D01*
X120631202Y-87217328D01*
X120631206Y-87217335D01*
X120717452Y-87332544D01*
X120717455Y-87332547D01*
X120832664Y-87418793D01*
X120832671Y-87418797D01*
X120967517Y-87469091D01*
X120967516Y-87469091D01*
X120974444Y-87469835D01*
X121027127Y-87475500D01*
X121822872Y-87475499D01*
X121882483Y-87469091D01*
X121932328Y-87450500D01*
X122017329Y-87418797D01*
X122017329Y-87418796D01*
X122017331Y-87418796D01*
X122037890Y-87403405D01*
X122103351Y-87378986D01*
X122171625Y-87393835D01*
X122179240Y-87398354D01*
X122200439Y-87411978D01*
X122226363Y-87419590D01*
X122285140Y-87457362D01*
X122314167Y-87520918D01*
X122304224Y-87590076D01*
X122279110Y-87626248D01*
X121634335Y-88271024D01*
X121573012Y-88304509D01*
X121546654Y-88307343D01*
X121514475Y-88307343D01*
X121383283Y-88345864D01*
X121268256Y-88419785D01*
X121268252Y-88419789D01*
X121178715Y-88523121D01*
X121178710Y-88523128D01*
X121121913Y-88647497D01*
X121121911Y-88647505D01*
X121102453Y-88782843D01*
X121121911Y-88918180D01*
X121121913Y-88918188D01*
X121178710Y-89042557D01*
X121178715Y-89042564D01*
X121268252Y-89145896D01*
X121268254Y-89145898D01*
X121352841Y-89200258D01*
X121373709Y-89213669D01*
X121419464Y-89266473D01*
X121429408Y-89300338D01*
X121439068Y-89367526D01*
X121439070Y-89367534D01*
X121495867Y-89491903D01*
X121495872Y-89491910D01*
X121585409Y-89595242D01*
X121585413Y-89595246D01*
X121619983Y-89617462D01*
X121700439Y-89669167D01*
X121741338Y-89681176D01*
X121831632Y-89707689D01*
X121831633Y-89707689D01*
X121968367Y-89707689D01*
X122099561Y-89669167D01*
X122214589Y-89595244D01*
X122214591Y-89595242D01*
X122221294Y-89589435D01*
X122223422Y-89591891D01*
X122268821Y-89562713D01*
X122303760Y-89557689D01*
X122585662Y-89557689D01*
X122585664Y-89557689D01*
X122668450Y-89535507D01*
X122742673Y-89492654D01*
X123473508Y-88761819D01*
X123534831Y-88728334D01*
X123561189Y-88725500D01*
X124454492Y-88725500D01*
X124521531Y-88745185D01*
X124567286Y-88797989D01*
X124577230Y-88867147D01*
X124568276Y-88929424D01*
X124587734Y-89064761D01*
X124587736Y-89064769D01*
X124644533Y-89189138D01*
X124644538Y-89189145D01*
X124734075Y-89292477D01*
X124734079Y-89292481D01*
X124773384Y-89317740D01*
X124849105Y-89366402D01*
X124902721Y-89382145D01*
X124980298Y-89404924D01*
X125045691Y-89404924D01*
X125112730Y-89424609D01*
X125158485Y-89477413D01*
X125168429Y-89546571D01*
X125144067Y-89604410D01*
X125134052Y-89617461D01*
X125134050Y-89617464D01*
X125107660Y-89681176D01*
X125080780Y-89721404D01*
X124936317Y-89865867D01*
X124896089Y-89892747D01*
X124832378Y-89919137D01*
X124832375Y-89919138D01*
X124832375Y-89919139D01*
X124801688Y-89942686D01*
X124717379Y-90007379D01*
X124629137Y-90122377D01*
X124573671Y-90256287D01*
X124573670Y-90256291D01*
X124557795Y-90376875D01*
X124554750Y-90400000D01*
X124573670Y-90543709D01*
X124596389Y-90598559D01*
X124600061Y-90607422D01*
X124609500Y-90654875D01*
X124609500Y-90675500D01*
X124589815Y-90742539D01*
X124537011Y-90788294D01*
X124485500Y-90799500D01*
X123136371Y-90799500D01*
X123069332Y-90779815D01*
X123023577Y-90727011D01*
X123021824Y-90722986D01*
X123000861Y-90672375D01*
X122912621Y-90557379D01*
X122797625Y-90469139D01*
X122797624Y-90469138D01*
X122797622Y-90469137D01*
X122663712Y-90413671D01*
X122663710Y-90413670D01*
X122663709Y-90413670D01*
X122559877Y-90400000D01*
X122520001Y-90394750D01*
X122519999Y-90394750D01*
X122376293Y-90413669D01*
X122359912Y-90420453D01*
X122312572Y-90440062D01*
X122265124Y-90449500D01*
X121058676Y-90449500D01*
X120991637Y-90429815D01*
X120970995Y-90413181D01*
X120536819Y-89979005D01*
X120503334Y-89917682D01*
X120500500Y-89891324D01*
X120500500Y-88366646D01*
X120500500Y-88366644D01*
X120466392Y-88239350D01*
X120400500Y-88125222D01*
X120307314Y-88032036D01*
X120080363Y-87805085D01*
X120053483Y-87764857D01*
X120027093Y-87701143D01*
X119938853Y-87586147D01*
X119823857Y-87497907D01*
X119798662Y-87487471D01*
X119760141Y-87471515D01*
X119732367Y-87452956D01*
X119731224Y-87454447D01*
X119724781Y-87449503D01*
X119724778Y-87449500D01*
X119659788Y-87411978D01*
X119610651Y-87383608D01*
X119491973Y-87351809D01*
X119483356Y-87349500D01*
X119483355Y-87349500D01*
X116326247Y-87349500D01*
X116294153Y-87345275D01*
X116288505Y-87343761D01*
X116144801Y-87324842D01*
X116144799Y-87324842D01*
X116001091Y-87343762D01*
X116001087Y-87343763D01*
X115867177Y-87399229D01*
X115752179Y-87487471D01*
X115663937Y-87602469D01*
X115608471Y-87736379D01*
X115608470Y-87736383D01*
X115604722Y-87764855D01*
X115589550Y-87880092D01*
X113550500Y-87880092D01*
X113550500Y-87074553D01*
X113570185Y-87007514D01*
X113586819Y-86986872D01*
X115661872Y-84911819D01*
X115723195Y-84878334D01*
X115749553Y-84875500D01*
X123903811Y-84875500D01*
X123970850Y-84895185D01*
X123991492Y-84911819D01*
X124357057Y-85277383D01*
X124390542Y-85338706D01*
X124392114Y-85347417D01*
X124409068Y-85465337D01*
X124409070Y-85465345D01*
X124465867Y-85589714D01*
X124465872Y-85589721D01*
X124555409Y-85693053D01*
X124555413Y-85693057D01*
X124615979Y-85731979D01*
X124670439Y-85766978D01*
X124720012Y-85781534D01*
X124801632Y-85805500D01*
X124801633Y-85805500D01*
X124938367Y-85805500D01*
X125069561Y-85766978D01*
X125184589Y-85693055D01*
X125274130Y-85589718D01*
X125311319Y-85508285D01*
X125357071Y-85455485D01*
X125424110Y-85435800D01*
X125491150Y-85455484D01*
X125511792Y-85472119D01*
X125647038Y-85607365D01*
X125680523Y-85668688D01*
X125681970Y-85709202D01*
X125682275Y-85709224D01*
X125682072Y-85712056D01*
X125682095Y-85712689D01*
X125681959Y-85713629D01*
X125681959Y-85786361D01*
X125683238Y-85795256D01*
X125684500Y-85812902D01*
X125684500Y-86187097D01*
X125683238Y-86204742D01*
X125681959Y-86213635D01*
X125681959Y-86286361D01*
X125702419Y-86428671D01*
X125722910Y-86498457D01*
X125782630Y-86629227D01*
X125782639Y-86629243D01*
X125821950Y-86690411D01*
X125821961Y-86690427D01*
X125916106Y-86799077D01*
X125971069Y-86846702D01*
X126092017Y-86924431D01*
X126092020Y-86924432D01*
X126092023Y-86924434D01*
X126158174Y-86954644D01*
X126296129Y-86995151D01*
X126368111Y-87005500D01*
X126368113Y-87005500D01*
X126990002Y-87005500D01*
X127091040Y-86985402D01*
X127139424Y-86985402D01*
X127215323Y-87000500D01*
X127215326Y-87000500D01*
X128264676Y-87000500D01*
X128264677Y-87000499D01*
X128337740Y-86985966D01*
X128420601Y-86930601D01*
X128475966Y-86847740D01*
X128490500Y-86774674D01*
X128490500Y-85225326D01*
X128490500Y-85225323D01*
X128490499Y-85225321D01*
X128475967Y-85152264D01*
X128475966Y-85152260D01*
X128460932Y-85129760D01*
X128420601Y-85069399D01*
X128364917Y-85032193D01*
X128337739Y-85014033D01*
X128337735Y-85014032D01*
X128264677Y-84999500D01*
X128264674Y-84999500D01*
X128189500Y-84999500D01*
X128122461Y-84979815D01*
X128076706Y-84927011D01*
X128065500Y-84875500D01*
X128065500Y-83762855D01*
X128065501Y-83762842D01*
X128065501Y-83667148D01*
X128063781Y-83660727D01*
X128043318Y-83584362D01*
X128023309Y-83549706D01*
X128023308Y-83549704D01*
X128023308Y-83549703D01*
X128000226Y-83509724D01*
X127983753Y-83441824D01*
X127991993Y-83405006D01*
X127991766Y-83404938D01*
X127992692Y-83401884D01*
X127993055Y-83400264D01*
X127993533Y-83399110D01*
X127993534Y-83399109D01*
X128052883Y-83203464D01*
X128072922Y-83000000D01*
X128052883Y-82796536D01*
X127993534Y-82600891D01*
X127897158Y-82420584D01*
X127897157Y-82420582D01*
X127767457Y-82262542D01*
X127609417Y-82132842D01*
X127609410Y-82132838D01*
X127480357Y-82063858D01*
X127430513Y-82014896D01*
X127415052Y-81946758D01*
X127438883Y-81881079D01*
X127494441Y-81838710D01*
X127538810Y-81830500D01*
X129061190Y-81830500D01*
X129128229Y-81850185D01*
G37*
%TD.AperFunction*%
%TA.AperFunction,Conductor*%
G36*
X131683958Y-98416473D02*
G01*
X131744149Y-98520727D01*
X131829273Y-98605851D01*
X131933527Y-98666042D01*
X132015536Y-98688016D01*
X131388054Y-99315497D01*
X131378469Y-99363193D01*
X131329854Y-99413376D01*
X131268708Y-99429500D01*
X130041393Y-99429500D01*
X129974354Y-99409815D01*
X129928599Y-99357011D01*
X129918655Y-99287853D01*
X129947680Y-99224297D01*
X129982940Y-99196142D01*
X130149410Y-99107161D01*
X130149416Y-99107158D01*
X130307457Y-98977457D01*
X130437158Y-98819416D01*
X130533534Y-98639109D01*
X130586529Y-98464411D01*
X130594652Y-98437634D01*
X130597113Y-98438380D01*
X130624262Y-98386406D01*
X130684957Y-98351795D01*
X130754729Y-98355494D01*
X130811425Y-98396327D01*
X130836172Y-98459115D01*
X130836376Y-98459080D01*
X130836552Y-98460079D01*
X130837045Y-98461330D01*
X130837072Y-98461640D01*
X130837313Y-98464396D01*
X130837316Y-98464414D01*
X130895615Y-98681991D01*
X130895618Y-98682000D01*
X130990819Y-98886157D01*
X130990820Y-98886159D01*
X131040020Y-98956424D01*
X131040021Y-98956425D01*
X131661983Y-98334462D01*
X131683958Y-98416473D01*
G37*
%TD.AperFunction*%
%TA.AperFunction,Conductor*%
G36*
X133179978Y-98956425D02*
G01*
X133229181Y-98886156D01*
X133324380Y-98682000D01*
X133324384Y-98681991D01*
X133382683Y-98464414D01*
X133382683Y-98464411D01*
X133382925Y-98461655D01*
X133383371Y-98460514D01*
X133383624Y-98459080D01*
X133383912Y-98459130D01*
X133408374Y-98396585D01*
X133464963Y-98355603D01*
X133534724Y-98351721D01*
X133595510Y-98386171D01*
X133622947Y-98438362D01*
X133625348Y-98437634D01*
X133686466Y-98639110D01*
X133782838Y-98819410D01*
X133782842Y-98819417D01*
X133912542Y-98977457D01*
X134070582Y-99107157D01*
X134070589Y-99107161D01*
X134237060Y-99196142D01*
X134286904Y-99245104D01*
X134302365Y-99313242D01*
X134278533Y-99378921D01*
X134222976Y-99421290D01*
X134178607Y-99429500D01*
X132951291Y-99429500D01*
X132884252Y-99409815D01*
X132838497Y-99357011D01*
X132831222Y-99314775D01*
X132204463Y-98688016D01*
X132286473Y-98666042D01*
X132390727Y-98605851D01*
X132475851Y-98520727D01*
X132536042Y-98416473D01*
X132558016Y-98334463D01*
X133179978Y-98956425D01*
G37*
%TD.AperFunction*%
%TD*%
M02*
