%TF.GenerationSoftware,KiCad,Pcbnew,8.0.7*%
%TF.CreationDate,2025-01-16T05:51:54+01:00*%
%TF.ProjectId,RP2040Micro,52503230-3430-44d6-9963-726f2e6b6963,rev?*%
%TF.SameCoordinates,Original*%
%TF.FileFunction,Legend,Bot*%
%TF.FilePolarity,Positive*%
%FSLAX46Y46*%
G04 Gerber Fmt 4.6, Leading zero omitted, Abs format (unit mm)*
G04 Created by KiCad (PCBNEW 8.0.7) date 2025-01-16 05:51:54*
%MOMM*%
%LPD*%
G01*
G04 APERTURE LIST*
G04 Aperture macros list*
%AMRoundRect*
0 Rectangle with rounded corners*
0 $1 Rounding radius*
0 $2 $3 $4 $5 $6 $7 $8 $9 X,Y pos of 4 corners*
0 Add a 4 corners polygon primitive as box body*
4,1,4,$2,$3,$4,$5,$6,$7,$8,$9,$2,$3,0*
0 Add four circle primitives for the rounded corners*
1,1,$1+$1,$2,$3*
1,1,$1+$1,$4,$5*
1,1,$1+$1,$6,$7*
1,1,$1+$1,$8,$9*
0 Add four rect primitives between the rounded corners*
20,1,$1+$1,$2,$3,$4,$5,0*
20,1,$1+$1,$4,$5,$6,$7,0*
20,1,$1+$1,$6,$7,$8,$9,0*
20,1,$1+$1,$8,$9,$2,$3,0*%
%AMFreePoly0*
4,1,19,0.550000,-0.750000,0.000000,-0.750000,0.000000,-0.744911,-0.071157,-0.744911,-0.207708,-0.704816,-0.327430,-0.627875,-0.420627,-0.520320,-0.479746,-0.390866,-0.500000,-0.250000,-0.500000,0.250000,-0.479746,0.390866,-0.420627,0.520320,-0.327430,0.627875,-0.207708,0.704816,-0.071157,0.744911,0.000000,0.744911,0.000000,0.750000,0.550000,0.750000,0.550000,-0.750000,0.550000,-0.750000,
$1*%
%AMFreePoly1*
4,1,19,0.000000,0.744911,0.071157,0.744911,0.207708,0.704816,0.327430,0.627875,0.420627,0.520320,0.479746,0.390866,0.500000,0.250000,0.500000,-0.250000,0.479746,-0.390866,0.420627,-0.520320,0.327430,-0.627875,0.207708,-0.704816,0.071157,-0.744911,0.000000,-0.744911,0.000000,-0.750000,-0.550000,-0.750000,-0.550000,0.750000,0.000000,0.750000,0.000000,0.744911,0.000000,0.744911,
$1*%
G04 Aperture macros list end*
%ADD10C,0.153000*%
%ADD11C,0.120000*%
%ADD12RoundRect,0.102000X-0.787400X0.787400X-0.787400X-0.787400X0.787400X-0.787400X0.787400X0.787400X0*%
%ADD13C,1.778800*%
%ADD14R,1.000000X1.000000*%
%ADD15RoundRect,0.250000X-0.350000X-0.450000X0.350000X-0.450000X0.350000X0.450000X-0.350000X0.450000X0*%
%ADD16FreePoly0,180.000000*%
%ADD17R,1.000000X1.500000*%
%ADD18FreePoly1,180.000000*%
G04 APERTURE END LIST*
D10*
X133132717Y-89237438D02*
X133180336Y-89332676D01*
X133180336Y-89332676D02*
X133180336Y-89475533D01*
X133180336Y-89475533D02*
X133132717Y-89618390D01*
X133132717Y-89618390D02*
X133037479Y-89713628D01*
X133037479Y-89713628D02*
X132942241Y-89761247D01*
X132942241Y-89761247D02*
X132751765Y-89808866D01*
X132751765Y-89808866D02*
X132608908Y-89808866D01*
X132608908Y-89808866D02*
X132418432Y-89761247D01*
X132418432Y-89761247D02*
X132323194Y-89713628D01*
X132323194Y-89713628D02*
X132227956Y-89618390D01*
X132227956Y-89618390D02*
X132180336Y-89475533D01*
X132180336Y-89475533D02*
X132180336Y-89380295D01*
X132180336Y-89380295D02*
X132227956Y-89237438D01*
X132227956Y-89237438D02*
X132275575Y-89189819D01*
X132275575Y-89189819D02*
X132608908Y-89189819D01*
X132608908Y-89189819D02*
X132608908Y-89380295D01*
X132180336Y-88761247D02*
X133180336Y-88761247D01*
X133180336Y-88761247D02*
X132180336Y-88189819D01*
X132180336Y-88189819D02*
X133180336Y-88189819D01*
X132180336Y-87713628D02*
X133180336Y-87713628D01*
X133180336Y-87713628D02*
X133180336Y-87475533D01*
X133180336Y-87475533D02*
X133132717Y-87332676D01*
X133132717Y-87332676D02*
X133037479Y-87237438D01*
X133037479Y-87237438D02*
X132942241Y-87189819D01*
X132942241Y-87189819D02*
X132751765Y-87142200D01*
X132751765Y-87142200D02*
X132608908Y-87142200D01*
X132608908Y-87142200D02*
X132418432Y-87189819D01*
X132418432Y-87189819D02*
X132323194Y-87237438D01*
X132323194Y-87237438D02*
X132227956Y-87332676D01*
X132227956Y-87332676D02*
X132180336Y-87475533D01*
X132180336Y-87475533D02*
X132180336Y-87713628D01*
X124196051Y-97028866D02*
X124196051Y-96552676D01*
X123910336Y-97124104D02*
X124910336Y-96790771D01*
X124910336Y-96790771D02*
X123910336Y-96457438D01*
X124910336Y-96219342D02*
X124910336Y-95600295D01*
X124910336Y-95600295D02*
X124529384Y-95933628D01*
X124529384Y-95933628D02*
X124529384Y-95790771D01*
X124529384Y-95790771D02*
X124481765Y-95695533D01*
X124481765Y-95695533D02*
X124434146Y-95647914D01*
X124434146Y-95647914D02*
X124338908Y-95600295D01*
X124338908Y-95600295D02*
X124100813Y-95600295D01*
X124100813Y-95600295D02*
X124005575Y-95647914D01*
X124005575Y-95647914D02*
X123957956Y-95695533D01*
X123957956Y-95695533D02*
X123910336Y-95790771D01*
X123910336Y-95790771D02*
X123910336Y-96076485D01*
X123910336Y-96076485D02*
X123957956Y-96171723D01*
X123957956Y-96171723D02*
X124005575Y-96219342D01*
X132512717Y-96507438D02*
X132560336Y-96602676D01*
X132560336Y-96602676D02*
X132560336Y-96745533D01*
X132560336Y-96745533D02*
X132512717Y-96888390D01*
X132512717Y-96888390D02*
X132417479Y-96983628D01*
X132417479Y-96983628D02*
X132322241Y-97031247D01*
X132322241Y-97031247D02*
X132131765Y-97078866D01*
X132131765Y-97078866D02*
X131988908Y-97078866D01*
X131988908Y-97078866D02*
X131798432Y-97031247D01*
X131798432Y-97031247D02*
X131703194Y-96983628D01*
X131703194Y-96983628D02*
X131607956Y-96888390D01*
X131607956Y-96888390D02*
X131560336Y-96745533D01*
X131560336Y-96745533D02*
X131560336Y-96650295D01*
X131560336Y-96650295D02*
X131607956Y-96507438D01*
X131607956Y-96507438D02*
X131655575Y-96459819D01*
X131655575Y-96459819D02*
X131988908Y-96459819D01*
X131988908Y-96459819D02*
X131988908Y-96650295D01*
X131560336Y-96031247D02*
X132560336Y-96031247D01*
X132560336Y-96031247D02*
X131560336Y-95459819D01*
X131560336Y-95459819D02*
X132560336Y-95459819D01*
X131560336Y-94983628D02*
X132560336Y-94983628D01*
X132560336Y-94983628D02*
X132560336Y-94745533D01*
X132560336Y-94745533D02*
X132512717Y-94602676D01*
X132512717Y-94602676D02*
X132417479Y-94507438D01*
X132417479Y-94507438D02*
X132322241Y-94459819D01*
X132322241Y-94459819D02*
X132131765Y-94412200D01*
X132131765Y-94412200D02*
X131988908Y-94412200D01*
X131988908Y-94412200D02*
X131798432Y-94459819D01*
X131798432Y-94459819D02*
X131703194Y-94507438D01*
X131703194Y-94507438D02*
X131607956Y-94602676D01*
X131607956Y-94602676D02*
X131560336Y-94745533D01*
X131560336Y-94745533D02*
X131560336Y-94983628D01*
X108585336Y-85731247D02*
X109585336Y-85731247D01*
X109585336Y-85731247D02*
X109585336Y-85493152D01*
X109585336Y-85493152D02*
X109537717Y-85350295D01*
X109537717Y-85350295D02*
X109442479Y-85255057D01*
X109442479Y-85255057D02*
X109347241Y-85207438D01*
X109347241Y-85207438D02*
X109156765Y-85159819D01*
X109156765Y-85159819D02*
X109013908Y-85159819D01*
X109013908Y-85159819D02*
X108823432Y-85207438D01*
X108823432Y-85207438D02*
X108728194Y-85255057D01*
X108728194Y-85255057D02*
X108632956Y-85350295D01*
X108632956Y-85350295D02*
X108585336Y-85493152D01*
X108585336Y-85493152D02*
X108585336Y-85731247D01*
X109156765Y-84588390D02*
X109204384Y-84683628D01*
X109204384Y-84683628D02*
X109252003Y-84731247D01*
X109252003Y-84731247D02*
X109347241Y-84778866D01*
X109347241Y-84778866D02*
X109394860Y-84778866D01*
X109394860Y-84778866D02*
X109490098Y-84731247D01*
X109490098Y-84731247D02*
X109537717Y-84683628D01*
X109537717Y-84683628D02*
X109585336Y-84588390D01*
X109585336Y-84588390D02*
X109585336Y-84397914D01*
X109585336Y-84397914D02*
X109537717Y-84302676D01*
X109537717Y-84302676D02*
X109490098Y-84255057D01*
X109490098Y-84255057D02*
X109394860Y-84207438D01*
X109394860Y-84207438D02*
X109347241Y-84207438D01*
X109347241Y-84207438D02*
X109252003Y-84255057D01*
X109252003Y-84255057D02*
X109204384Y-84302676D01*
X109204384Y-84302676D02*
X109156765Y-84397914D01*
X109156765Y-84397914D02*
X109156765Y-84588390D01*
X109156765Y-84588390D02*
X109109146Y-84683628D01*
X109109146Y-84683628D02*
X109061527Y-84731247D01*
X109061527Y-84731247D02*
X108966289Y-84778866D01*
X108966289Y-84778866D02*
X108775813Y-84778866D01*
X108775813Y-84778866D02*
X108680575Y-84731247D01*
X108680575Y-84731247D02*
X108632956Y-84683628D01*
X108632956Y-84683628D02*
X108585336Y-84588390D01*
X108585336Y-84588390D02*
X108585336Y-84397914D01*
X108585336Y-84397914D02*
X108632956Y-84302676D01*
X108632956Y-84302676D02*
X108680575Y-84255057D01*
X108680575Y-84255057D02*
X108775813Y-84207438D01*
X108775813Y-84207438D02*
X108966289Y-84207438D01*
X108966289Y-84207438D02*
X109061527Y-84255057D01*
X109061527Y-84255057D02*
X109109146Y-84302676D01*
X109109146Y-84302676D02*
X109156765Y-84397914D01*
X105985336Y-85781247D02*
X106985336Y-85781247D01*
X106985336Y-85781247D02*
X106985336Y-85543152D01*
X106985336Y-85543152D02*
X106937717Y-85400295D01*
X106937717Y-85400295D02*
X106842479Y-85305057D01*
X106842479Y-85305057D02*
X106747241Y-85257438D01*
X106747241Y-85257438D02*
X106556765Y-85209819D01*
X106556765Y-85209819D02*
X106413908Y-85209819D01*
X106413908Y-85209819D02*
X106223432Y-85257438D01*
X106223432Y-85257438D02*
X106128194Y-85305057D01*
X106128194Y-85305057D02*
X106032956Y-85400295D01*
X106032956Y-85400295D02*
X105985336Y-85543152D01*
X105985336Y-85543152D02*
X105985336Y-85781247D01*
X105985336Y-84733628D02*
X105985336Y-84543152D01*
X105985336Y-84543152D02*
X106032956Y-84447914D01*
X106032956Y-84447914D02*
X106080575Y-84400295D01*
X106080575Y-84400295D02*
X106223432Y-84305057D01*
X106223432Y-84305057D02*
X106413908Y-84257438D01*
X106413908Y-84257438D02*
X106794860Y-84257438D01*
X106794860Y-84257438D02*
X106890098Y-84305057D01*
X106890098Y-84305057D02*
X106937717Y-84352676D01*
X106937717Y-84352676D02*
X106985336Y-84447914D01*
X106985336Y-84447914D02*
X106985336Y-84638390D01*
X106985336Y-84638390D02*
X106937717Y-84733628D01*
X106937717Y-84733628D02*
X106890098Y-84781247D01*
X106890098Y-84781247D02*
X106794860Y-84828866D01*
X106794860Y-84828866D02*
X106556765Y-84828866D01*
X106556765Y-84828866D02*
X106461527Y-84781247D01*
X106461527Y-84781247D02*
X106413908Y-84733628D01*
X106413908Y-84733628D02*
X106366289Y-84638390D01*
X106366289Y-84638390D02*
X106366289Y-84447914D01*
X106366289Y-84447914D02*
X106413908Y-84352676D01*
X106413908Y-84352676D02*
X106461527Y-84305057D01*
X106461527Y-84305057D02*
X106556765Y-84257438D01*
X128407717Y-89237438D02*
X128455336Y-89332676D01*
X128455336Y-89332676D02*
X128455336Y-89475533D01*
X128455336Y-89475533D02*
X128407717Y-89618390D01*
X128407717Y-89618390D02*
X128312479Y-89713628D01*
X128312479Y-89713628D02*
X128217241Y-89761247D01*
X128217241Y-89761247D02*
X128026765Y-89808866D01*
X128026765Y-89808866D02*
X127883908Y-89808866D01*
X127883908Y-89808866D02*
X127693432Y-89761247D01*
X127693432Y-89761247D02*
X127598194Y-89713628D01*
X127598194Y-89713628D02*
X127502956Y-89618390D01*
X127502956Y-89618390D02*
X127455336Y-89475533D01*
X127455336Y-89475533D02*
X127455336Y-89380295D01*
X127455336Y-89380295D02*
X127502956Y-89237438D01*
X127502956Y-89237438D02*
X127550575Y-89189819D01*
X127550575Y-89189819D02*
X127883908Y-89189819D01*
X127883908Y-89189819D02*
X127883908Y-89380295D01*
X127455336Y-88761247D02*
X128455336Y-88761247D01*
X128455336Y-88761247D02*
X127455336Y-88189819D01*
X127455336Y-88189819D02*
X128455336Y-88189819D01*
X127455336Y-87713628D02*
X128455336Y-87713628D01*
X128455336Y-87713628D02*
X128455336Y-87475533D01*
X128455336Y-87475533D02*
X128407717Y-87332676D01*
X128407717Y-87332676D02*
X128312479Y-87237438D01*
X128312479Y-87237438D02*
X128217241Y-87189819D01*
X128217241Y-87189819D02*
X128026765Y-87142200D01*
X128026765Y-87142200D02*
X127883908Y-87142200D01*
X127883908Y-87142200D02*
X127693432Y-87189819D01*
X127693432Y-87189819D02*
X127598194Y-87237438D01*
X127598194Y-87237438D02*
X127502956Y-87332676D01*
X127502956Y-87332676D02*
X127455336Y-87475533D01*
X127455336Y-87475533D02*
X127455336Y-87713628D01*
X108785336Y-97156247D02*
X109785336Y-97156247D01*
X109785336Y-97156247D02*
X109785336Y-96918152D01*
X109785336Y-96918152D02*
X109737717Y-96775295D01*
X109737717Y-96775295D02*
X109642479Y-96680057D01*
X109642479Y-96680057D02*
X109547241Y-96632438D01*
X109547241Y-96632438D02*
X109356765Y-96584819D01*
X109356765Y-96584819D02*
X109213908Y-96584819D01*
X109213908Y-96584819D02*
X109023432Y-96632438D01*
X109023432Y-96632438D02*
X108928194Y-96680057D01*
X108928194Y-96680057D02*
X108832956Y-96775295D01*
X108832956Y-96775295D02*
X108785336Y-96918152D01*
X108785336Y-96918152D02*
X108785336Y-97156247D01*
X108785336Y-95632438D02*
X108785336Y-96203866D01*
X108785336Y-95918152D02*
X109785336Y-95918152D01*
X109785336Y-95918152D02*
X109642479Y-96013390D01*
X109642479Y-96013390D02*
X109547241Y-96108628D01*
X109547241Y-96108628D02*
X109499622Y-96203866D01*
X109785336Y-94775295D02*
X109785336Y-94965771D01*
X109785336Y-94965771D02*
X109737717Y-95061009D01*
X109737717Y-95061009D02*
X109690098Y-95108628D01*
X109690098Y-95108628D02*
X109547241Y-95203866D01*
X109547241Y-95203866D02*
X109356765Y-95251485D01*
X109356765Y-95251485D02*
X108975813Y-95251485D01*
X108975813Y-95251485D02*
X108880575Y-95203866D01*
X108880575Y-95203866D02*
X108832956Y-95156247D01*
X108832956Y-95156247D02*
X108785336Y-95061009D01*
X108785336Y-95061009D02*
X108785336Y-94870533D01*
X108785336Y-94870533D02*
X108832956Y-94775295D01*
X108832956Y-94775295D02*
X108880575Y-94727676D01*
X108880575Y-94727676D02*
X108975813Y-94680057D01*
X108975813Y-94680057D02*
X109213908Y-94680057D01*
X109213908Y-94680057D02*
X109309146Y-94727676D01*
X109309146Y-94727676D02*
X109356765Y-94775295D01*
X109356765Y-94775295D02*
X109404384Y-94870533D01*
X109404384Y-94870533D02*
X109404384Y-95061009D01*
X109404384Y-95061009D02*
X109356765Y-95156247D01*
X109356765Y-95156247D02*
X109309146Y-95203866D01*
X109309146Y-95203866D02*
X109213908Y-95251485D01*
X121420336Y-93611247D02*
X122420336Y-93611247D01*
X122420336Y-93611247D02*
X122420336Y-93373152D01*
X122420336Y-93373152D02*
X122372717Y-93230295D01*
X122372717Y-93230295D02*
X122277479Y-93135057D01*
X122277479Y-93135057D02*
X122182241Y-93087438D01*
X122182241Y-93087438D02*
X121991765Y-93039819D01*
X121991765Y-93039819D02*
X121848908Y-93039819D01*
X121848908Y-93039819D02*
X121658432Y-93087438D01*
X121658432Y-93087438D02*
X121563194Y-93135057D01*
X121563194Y-93135057D02*
X121467956Y-93230295D01*
X121467956Y-93230295D02*
X121420336Y-93373152D01*
X121420336Y-93373152D02*
X121420336Y-93611247D01*
X121420336Y-92087438D02*
X121420336Y-92658866D01*
X121420336Y-92373152D02*
X122420336Y-92373152D01*
X122420336Y-92373152D02*
X122277479Y-92468390D01*
X122277479Y-92468390D02*
X122182241Y-92563628D01*
X122182241Y-92563628D02*
X122134622Y-92658866D01*
X121420336Y-91611247D02*
X121420336Y-91420771D01*
X121420336Y-91420771D02*
X121467956Y-91325533D01*
X121467956Y-91325533D02*
X121515575Y-91277914D01*
X121515575Y-91277914D02*
X121658432Y-91182676D01*
X121658432Y-91182676D02*
X121848908Y-91135057D01*
X121848908Y-91135057D02*
X122229860Y-91135057D01*
X122229860Y-91135057D02*
X122325098Y-91182676D01*
X122325098Y-91182676D02*
X122372717Y-91230295D01*
X122372717Y-91230295D02*
X122420336Y-91325533D01*
X122420336Y-91325533D02*
X122420336Y-91516009D01*
X122420336Y-91516009D02*
X122372717Y-91611247D01*
X122372717Y-91611247D02*
X122325098Y-91658866D01*
X122325098Y-91658866D02*
X122229860Y-91706485D01*
X122229860Y-91706485D02*
X121991765Y-91706485D01*
X121991765Y-91706485D02*
X121896527Y-91658866D01*
X121896527Y-91658866D02*
X121848908Y-91611247D01*
X121848908Y-91611247D02*
X121801289Y-91516009D01*
X121801289Y-91516009D02*
X121801289Y-91325533D01*
X121801289Y-91325533D02*
X121848908Y-91230295D01*
X121848908Y-91230295D02*
X121896527Y-91182676D01*
X121896527Y-91182676D02*
X121991765Y-91135057D01*
X106260336Y-97131247D02*
X107260336Y-97131247D01*
X107260336Y-97131247D02*
X107260336Y-96893152D01*
X107260336Y-96893152D02*
X107212717Y-96750295D01*
X107212717Y-96750295D02*
X107117479Y-96655057D01*
X107117479Y-96655057D02*
X107022241Y-96607438D01*
X107022241Y-96607438D02*
X106831765Y-96559819D01*
X106831765Y-96559819D02*
X106688908Y-96559819D01*
X106688908Y-96559819D02*
X106498432Y-96607438D01*
X106498432Y-96607438D02*
X106403194Y-96655057D01*
X106403194Y-96655057D02*
X106307956Y-96750295D01*
X106307956Y-96750295D02*
X106260336Y-96893152D01*
X106260336Y-96893152D02*
X106260336Y-97131247D01*
X106260336Y-95607438D02*
X106260336Y-96178866D01*
X106260336Y-95893152D02*
X107260336Y-95893152D01*
X107260336Y-95893152D02*
X107117479Y-95988390D01*
X107117479Y-95988390D02*
X107022241Y-96083628D01*
X107022241Y-96083628D02*
X106974622Y-96178866D01*
X107260336Y-94988390D02*
X107260336Y-94893152D01*
X107260336Y-94893152D02*
X107212717Y-94797914D01*
X107212717Y-94797914D02*
X107165098Y-94750295D01*
X107165098Y-94750295D02*
X107069860Y-94702676D01*
X107069860Y-94702676D02*
X106879384Y-94655057D01*
X106879384Y-94655057D02*
X106641289Y-94655057D01*
X106641289Y-94655057D02*
X106450813Y-94702676D01*
X106450813Y-94702676D02*
X106355575Y-94750295D01*
X106355575Y-94750295D02*
X106307956Y-94797914D01*
X106307956Y-94797914D02*
X106260336Y-94893152D01*
X106260336Y-94893152D02*
X106260336Y-94988390D01*
X106260336Y-94988390D02*
X106307956Y-95083628D01*
X106307956Y-95083628D02*
X106355575Y-95131247D01*
X106355575Y-95131247D02*
X106450813Y-95178866D01*
X106450813Y-95178866D02*
X106641289Y-95226485D01*
X106641289Y-95226485D02*
X106879384Y-95226485D01*
X106879384Y-95226485D02*
X107069860Y-95178866D01*
X107069860Y-95178866D02*
X107165098Y-95131247D01*
X107165098Y-95131247D02*
X107212717Y-95083628D01*
X107212717Y-95083628D02*
X107260336Y-94988390D01*
X127530336Y-93511247D02*
X128530336Y-93511247D01*
X128530336Y-93511247D02*
X128530336Y-93273152D01*
X128530336Y-93273152D02*
X128482717Y-93130295D01*
X128482717Y-93130295D02*
X128387479Y-93035057D01*
X128387479Y-93035057D02*
X128292241Y-92987438D01*
X128292241Y-92987438D02*
X128101765Y-92939819D01*
X128101765Y-92939819D02*
X127958908Y-92939819D01*
X127958908Y-92939819D02*
X127768432Y-92987438D01*
X127768432Y-92987438D02*
X127673194Y-93035057D01*
X127673194Y-93035057D02*
X127577956Y-93130295D01*
X127577956Y-93130295D02*
X127530336Y-93273152D01*
X127530336Y-93273152D02*
X127530336Y-93511247D01*
X128435098Y-92558866D02*
X128482717Y-92511247D01*
X128482717Y-92511247D02*
X128530336Y-92416009D01*
X128530336Y-92416009D02*
X128530336Y-92177914D01*
X128530336Y-92177914D02*
X128482717Y-92082676D01*
X128482717Y-92082676D02*
X128435098Y-92035057D01*
X128435098Y-92035057D02*
X128339860Y-91987438D01*
X128339860Y-91987438D02*
X128244622Y-91987438D01*
X128244622Y-91987438D02*
X128101765Y-92035057D01*
X128101765Y-92035057D02*
X127530336Y-92606485D01*
X127530336Y-92606485D02*
X127530336Y-91987438D01*
X128435098Y-91606485D02*
X128482717Y-91558866D01*
X128482717Y-91558866D02*
X128530336Y-91463628D01*
X128530336Y-91463628D02*
X128530336Y-91225533D01*
X128530336Y-91225533D02*
X128482717Y-91130295D01*
X128482717Y-91130295D02*
X128435098Y-91082676D01*
X128435098Y-91082676D02*
X128339860Y-91035057D01*
X128339860Y-91035057D02*
X128244622Y-91035057D01*
X128244622Y-91035057D02*
X128101765Y-91082676D01*
X128101765Y-91082676D02*
X127530336Y-91654104D01*
X127530336Y-91654104D02*
X127530336Y-91035057D01*
X125540336Y-93581247D02*
X126540336Y-93581247D01*
X126540336Y-93581247D02*
X126540336Y-93343152D01*
X126540336Y-93343152D02*
X126492717Y-93200295D01*
X126492717Y-93200295D02*
X126397479Y-93105057D01*
X126397479Y-93105057D02*
X126302241Y-93057438D01*
X126302241Y-93057438D02*
X126111765Y-93009819D01*
X126111765Y-93009819D02*
X125968908Y-93009819D01*
X125968908Y-93009819D02*
X125778432Y-93057438D01*
X125778432Y-93057438D02*
X125683194Y-93105057D01*
X125683194Y-93105057D02*
X125587956Y-93200295D01*
X125587956Y-93200295D02*
X125540336Y-93343152D01*
X125540336Y-93343152D02*
X125540336Y-93581247D01*
X126445098Y-92628866D02*
X126492717Y-92581247D01*
X126492717Y-92581247D02*
X126540336Y-92486009D01*
X126540336Y-92486009D02*
X126540336Y-92247914D01*
X126540336Y-92247914D02*
X126492717Y-92152676D01*
X126492717Y-92152676D02*
X126445098Y-92105057D01*
X126445098Y-92105057D02*
X126349860Y-92057438D01*
X126349860Y-92057438D02*
X126254622Y-92057438D01*
X126254622Y-92057438D02*
X126111765Y-92105057D01*
X126111765Y-92105057D02*
X125540336Y-92676485D01*
X125540336Y-92676485D02*
X125540336Y-92057438D01*
X125540336Y-91105057D02*
X125540336Y-91676485D01*
X125540336Y-91390771D02*
X126540336Y-91390771D01*
X126540336Y-91390771D02*
X126397479Y-91486009D01*
X126397479Y-91486009D02*
X126302241Y-91581247D01*
X126302241Y-91581247D02*
X126254622Y-91676485D01*
X113760336Y-97131247D02*
X114760336Y-97131247D01*
X114760336Y-97131247D02*
X114760336Y-96893152D01*
X114760336Y-96893152D02*
X114712717Y-96750295D01*
X114712717Y-96750295D02*
X114617479Y-96655057D01*
X114617479Y-96655057D02*
X114522241Y-96607438D01*
X114522241Y-96607438D02*
X114331765Y-96559819D01*
X114331765Y-96559819D02*
X114188908Y-96559819D01*
X114188908Y-96559819D02*
X113998432Y-96607438D01*
X113998432Y-96607438D02*
X113903194Y-96655057D01*
X113903194Y-96655057D02*
X113807956Y-96750295D01*
X113807956Y-96750295D02*
X113760336Y-96893152D01*
X113760336Y-96893152D02*
X113760336Y-97131247D01*
X113760336Y-95607438D02*
X113760336Y-96178866D01*
X113760336Y-95893152D02*
X114760336Y-95893152D01*
X114760336Y-95893152D02*
X114617479Y-95988390D01*
X114617479Y-95988390D02*
X114522241Y-96083628D01*
X114522241Y-96083628D02*
X114474622Y-96178866D01*
X114760336Y-94702676D02*
X114760336Y-95178866D01*
X114760336Y-95178866D02*
X114284146Y-95226485D01*
X114284146Y-95226485D02*
X114331765Y-95178866D01*
X114331765Y-95178866D02*
X114379384Y-95083628D01*
X114379384Y-95083628D02*
X114379384Y-94845533D01*
X114379384Y-94845533D02*
X114331765Y-94750295D01*
X114331765Y-94750295D02*
X114284146Y-94702676D01*
X114284146Y-94702676D02*
X114188908Y-94655057D01*
X114188908Y-94655057D02*
X113950813Y-94655057D01*
X113950813Y-94655057D02*
X113855575Y-94702676D01*
X113855575Y-94702676D02*
X113807956Y-94750295D01*
X113807956Y-94750295D02*
X113760336Y-94845533D01*
X113760336Y-94845533D02*
X113760336Y-95083628D01*
X113760336Y-95083628D02*
X113807956Y-95178866D01*
X113807956Y-95178866D02*
X113855575Y-95226485D01*
X123420336Y-93641247D02*
X124420336Y-93641247D01*
X124420336Y-93641247D02*
X124420336Y-93403152D01*
X124420336Y-93403152D02*
X124372717Y-93260295D01*
X124372717Y-93260295D02*
X124277479Y-93165057D01*
X124277479Y-93165057D02*
X124182241Y-93117438D01*
X124182241Y-93117438D02*
X123991765Y-93069819D01*
X123991765Y-93069819D02*
X123848908Y-93069819D01*
X123848908Y-93069819D02*
X123658432Y-93117438D01*
X123658432Y-93117438D02*
X123563194Y-93165057D01*
X123563194Y-93165057D02*
X123467956Y-93260295D01*
X123467956Y-93260295D02*
X123420336Y-93403152D01*
X123420336Y-93403152D02*
X123420336Y-93641247D01*
X124325098Y-92688866D02*
X124372717Y-92641247D01*
X124372717Y-92641247D02*
X124420336Y-92546009D01*
X124420336Y-92546009D02*
X124420336Y-92307914D01*
X124420336Y-92307914D02*
X124372717Y-92212676D01*
X124372717Y-92212676D02*
X124325098Y-92165057D01*
X124325098Y-92165057D02*
X124229860Y-92117438D01*
X124229860Y-92117438D02*
X124134622Y-92117438D01*
X124134622Y-92117438D02*
X123991765Y-92165057D01*
X123991765Y-92165057D02*
X123420336Y-92736485D01*
X123420336Y-92736485D02*
X123420336Y-92117438D01*
X124420336Y-91498390D02*
X124420336Y-91403152D01*
X124420336Y-91403152D02*
X124372717Y-91307914D01*
X124372717Y-91307914D02*
X124325098Y-91260295D01*
X124325098Y-91260295D02*
X124229860Y-91212676D01*
X124229860Y-91212676D02*
X124039384Y-91165057D01*
X124039384Y-91165057D02*
X123801289Y-91165057D01*
X123801289Y-91165057D02*
X123610813Y-91212676D01*
X123610813Y-91212676D02*
X123515575Y-91260295D01*
X123515575Y-91260295D02*
X123467956Y-91307914D01*
X123467956Y-91307914D02*
X123420336Y-91403152D01*
X123420336Y-91403152D02*
X123420336Y-91498390D01*
X123420336Y-91498390D02*
X123467956Y-91593628D01*
X123467956Y-91593628D02*
X123515575Y-91641247D01*
X123515575Y-91641247D02*
X123610813Y-91688866D01*
X123610813Y-91688866D02*
X123801289Y-91736485D01*
X123801289Y-91736485D02*
X124039384Y-91736485D01*
X124039384Y-91736485D02*
X124229860Y-91688866D01*
X124229860Y-91688866D02*
X124325098Y-91641247D01*
X124325098Y-91641247D02*
X124372717Y-91593628D01*
X124372717Y-91593628D02*
X124420336Y-91498390D01*
X116671051Y-97028866D02*
X116671051Y-96552676D01*
X116385336Y-97124104D02*
X117385336Y-96790771D01*
X117385336Y-96790771D02*
X116385336Y-96457438D01*
X117385336Y-95933628D02*
X117385336Y-95838390D01*
X117385336Y-95838390D02*
X117337717Y-95743152D01*
X117337717Y-95743152D02*
X117290098Y-95695533D01*
X117290098Y-95695533D02*
X117194860Y-95647914D01*
X117194860Y-95647914D02*
X117004384Y-95600295D01*
X117004384Y-95600295D02*
X116766289Y-95600295D01*
X116766289Y-95600295D02*
X116575813Y-95647914D01*
X116575813Y-95647914D02*
X116480575Y-95695533D01*
X116480575Y-95695533D02*
X116432956Y-95743152D01*
X116432956Y-95743152D02*
X116385336Y-95838390D01*
X116385336Y-95838390D02*
X116385336Y-95933628D01*
X116385336Y-95933628D02*
X116432956Y-96028866D01*
X116432956Y-96028866D02*
X116480575Y-96076485D01*
X116480575Y-96076485D02*
X116575813Y-96124104D01*
X116575813Y-96124104D02*
X116766289Y-96171723D01*
X116766289Y-96171723D02*
X117004384Y-96171723D01*
X117004384Y-96171723D02*
X117194860Y-96124104D01*
X117194860Y-96124104D02*
X117290098Y-96076485D01*
X117290098Y-96076485D02*
X117337717Y-96028866D01*
X117337717Y-96028866D02*
X117385336Y-95933628D01*
X111060336Y-85656247D02*
X112060336Y-85656247D01*
X112060336Y-85656247D02*
X112060336Y-85418152D01*
X112060336Y-85418152D02*
X112012717Y-85275295D01*
X112012717Y-85275295D02*
X111917479Y-85180057D01*
X111917479Y-85180057D02*
X111822241Y-85132438D01*
X111822241Y-85132438D02*
X111631765Y-85084819D01*
X111631765Y-85084819D02*
X111488908Y-85084819D01*
X111488908Y-85084819D02*
X111298432Y-85132438D01*
X111298432Y-85132438D02*
X111203194Y-85180057D01*
X111203194Y-85180057D02*
X111107956Y-85275295D01*
X111107956Y-85275295D02*
X111060336Y-85418152D01*
X111060336Y-85418152D02*
X111060336Y-85656247D01*
X112060336Y-84751485D02*
X112060336Y-84084819D01*
X112060336Y-84084819D02*
X111060336Y-84513390D01*
X119121051Y-96978866D02*
X119121051Y-96502676D01*
X118835336Y-97074104D02*
X119835336Y-96740771D01*
X119835336Y-96740771D02*
X118835336Y-96407438D01*
X118835336Y-95550295D02*
X118835336Y-96121723D01*
X118835336Y-95836009D02*
X119835336Y-95836009D01*
X119835336Y-95836009D02*
X119692479Y-95931247D01*
X119692479Y-95931247D02*
X119597241Y-96026485D01*
X119597241Y-96026485D02*
X119549622Y-96121723D01*
X116210336Y-85731247D02*
X117210336Y-85731247D01*
X117210336Y-85731247D02*
X117210336Y-85493152D01*
X117210336Y-85493152D02*
X117162717Y-85350295D01*
X117162717Y-85350295D02*
X117067479Y-85255057D01*
X117067479Y-85255057D02*
X116972241Y-85207438D01*
X116972241Y-85207438D02*
X116781765Y-85159819D01*
X116781765Y-85159819D02*
X116638908Y-85159819D01*
X116638908Y-85159819D02*
X116448432Y-85207438D01*
X116448432Y-85207438D02*
X116353194Y-85255057D01*
X116353194Y-85255057D02*
X116257956Y-85350295D01*
X116257956Y-85350295D02*
X116210336Y-85493152D01*
X116210336Y-85493152D02*
X116210336Y-85731247D01*
X117210336Y-84255057D02*
X117210336Y-84731247D01*
X117210336Y-84731247D02*
X116734146Y-84778866D01*
X116734146Y-84778866D02*
X116781765Y-84731247D01*
X116781765Y-84731247D02*
X116829384Y-84636009D01*
X116829384Y-84636009D02*
X116829384Y-84397914D01*
X116829384Y-84397914D02*
X116781765Y-84302676D01*
X116781765Y-84302676D02*
X116734146Y-84255057D01*
X116734146Y-84255057D02*
X116638908Y-84207438D01*
X116638908Y-84207438D02*
X116400813Y-84207438D01*
X116400813Y-84207438D02*
X116305575Y-84255057D01*
X116305575Y-84255057D02*
X116257956Y-84302676D01*
X116257956Y-84302676D02*
X116210336Y-84397914D01*
X116210336Y-84397914D02*
X116210336Y-84636009D01*
X116210336Y-84636009D02*
X116257956Y-84731247D01*
X116257956Y-84731247D02*
X116305575Y-84778866D01*
X111210336Y-97156247D02*
X112210336Y-97156247D01*
X112210336Y-97156247D02*
X112210336Y-96918152D01*
X112210336Y-96918152D02*
X112162717Y-96775295D01*
X112162717Y-96775295D02*
X112067479Y-96680057D01*
X112067479Y-96680057D02*
X111972241Y-96632438D01*
X111972241Y-96632438D02*
X111781765Y-96584819D01*
X111781765Y-96584819D02*
X111638908Y-96584819D01*
X111638908Y-96584819D02*
X111448432Y-96632438D01*
X111448432Y-96632438D02*
X111353194Y-96680057D01*
X111353194Y-96680057D02*
X111257956Y-96775295D01*
X111257956Y-96775295D02*
X111210336Y-96918152D01*
X111210336Y-96918152D02*
X111210336Y-97156247D01*
X111210336Y-95632438D02*
X111210336Y-96203866D01*
X111210336Y-95918152D02*
X112210336Y-95918152D01*
X112210336Y-95918152D02*
X112067479Y-96013390D01*
X112067479Y-96013390D02*
X111972241Y-96108628D01*
X111972241Y-96108628D02*
X111924622Y-96203866D01*
X111877003Y-94775295D02*
X111210336Y-94775295D01*
X112257956Y-95013390D02*
X111543670Y-95251485D01*
X111543670Y-95251485D02*
X111543670Y-94632438D01*
X123980336Y-85561247D02*
X124980336Y-85561247D01*
X124980336Y-85561247D02*
X124980336Y-85323152D01*
X124980336Y-85323152D02*
X124932717Y-85180295D01*
X124932717Y-85180295D02*
X124837479Y-85085057D01*
X124837479Y-85085057D02*
X124742241Y-85037438D01*
X124742241Y-85037438D02*
X124551765Y-84989819D01*
X124551765Y-84989819D02*
X124408908Y-84989819D01*
X124408908Y-84989819D02*
X124218432Y-85037438D01*
X124218432Y-85037438D02*
X124123194Y-85085057D01*
X124123194Y-85085057D02*
X124027956Y-85180295D01*
X124027956Y-85180295D02*
X123980336Y-85323152D01*
X123980336Y-85323152D02*
X123980336Y-85561247D01*
X124885098Y-84608866D02*
X124932717Y-84561247D01*
X124932717Y-84561247D02*
X124980336Y-84466009D01*
X124980336Y-84466009D02*
X124980336Y-84227914D01*
X124980336Y-84227914D02*
X124932717Y-84132676D01*
X124932717Y-84132676D02*
X124885098Y-84085057D01*
X124885098Y-84085057D02*
X124789860Y-84037438D01*
X124789860Y-84037438D02*
X124694622Y-84037438D01*
X124694622Y-84037438D02*
X124551765Y-84085057D01*
X124551765Y-84085057D02*
X123980336Y-84656485D01*
X123980336Y-84656485D02*
X123980336Y-84037438D01*
X129660336Y-93551247D02*
X130660336Y-93551247D01*
X130660336Y-93551247D02*
X130660336Y-93313152D01*
X130660336Y-93313152D02*
X130612717Y-93170295D01*
X130612717Y-93170295D02*
X130517479Y-93075057D01*
X130517479Y-93075057D02*
X130422241Y-93027438D01*
X130422241Y-93027438D02*
X130231765Y-92979819D01*
X130231765Y-92979819D02*
X130088908Y-92979819D01*
X130088908Y-92979819D02*
X129898432Y-93027438D01*
X129898432Y-93027438D02*
X129803194Y-93075057D01*
X129803194Y-93075057D02*
X129707956Y-93170295D01*
X129707956Y-93170295D02*
X129660336Y-93313152D01*
X129660336Y-93313152D02*
X129660336Y-93551247D01*
X130565098Y-92598866D02*
X130612717Y-92551247D01*
X130612717Y-92551247D02*
X130660336Y-92456009D01*
X130660336Y-92456009D02*
X130660336Y-92217914D01*
X130660336Y-92217914D02*
X130612717Y-92122676D01*
X130612717Y-92122676D02*
X130565098Y-92075057D01*
X130565098Y-92075057D02*
X130469860Y-92027438D01*
X130469860Y-92027438D02*
X130374622Y-92027438D01*
X130374622Y-92027438D02*
X130231765Y-92075057D01*
X130231765Y-92075057D02*
X129660336Y-92646485D01*
X129660336Y-92646485D02*
X129660336Y-92027438D01*
X130660336Y-91694104D02*
X130660336Y-91075057D01*
X130660336Y-91075057D02*
X130279384Y-91408390D01*
X130279384Y-91408390D02*
X130279384Y-91265533D01*
X130279384Y-91265533D02*
X130231765Y-91170295D01*
X130231765Y-91170295D02*
X130184146Y-91122676D01*
X130184146Y-91122676D02*
X130088908Y-91075057D01*
X130088908Y-91075057D02*
X129850813Y-91075057D01*
X129850813Y-91075057D02*
X129755575Y-91122676D01*
X129755575Y-91122676D02*
X129707956Y-91170295D01*
X129707956Y-91170295D02*
X129660336Y-91265533D01*
X129660336Y-91265533D02*
X129660336Y-91551247D01*
X129660336Y-91551247D02*
X129707956Y-91646485D01*
X129707956Y-91646485D02*
X129755575Y-91694104D01*
X130930336Y-89636247D02*
X131930336Y-89636247D01*
X131930336Y-89636247D02*
X131930336Y-89398152D01*
X131930336Y-89398152D02*
X131882717Y-89255295D01*
X131882717Y-89255295D02*
X131787479Y-89160057D01*
X131787479Y-89160057D02*
X131692241Y-89112438D01*
X131692241Y-89112438D02*
X131501765Y-89064819D01*
X131501765Y-89064819D02*
X131358908Y-89064819D01*
X131358908Y-89064819D02*
X131168432Y-89112438D01*
X131168432Y-89112438D02*
X131073194Y-89160057D01*
X131073194Y-89160057D02*
X130977956Y-89255295D01*
X130977956Y-89255295D02*
X130930336Y-89398152D01*
X130930336Y-89398152D02*
X130930336Y-89636247D01*
X130930336Y-88112438D02*
X130930336Y-88683866D01*
X130930336Y-88398152D02*
X131930336Y-88398152D01*
X131930336Y-88398152D02*
X131787479Y-88493390D01*
X131787479Y-88493390D02*
X131692241Y-88588628D01*
X131692241Y-88588628D02*
X131644622Y-88683866D01*
X130930336Y-87160057D02*
X130930336Y-87731485D01*
X130930336Y-87445771D02*
X131930336Y-87445771D01*
X131930336Y-87445771D02*
X131787479Y-87541009D01*
X131787479Y-87541009D02*
X131692241Y-87636247D01*
X131692241Y-87636247D02*
X131644622Y-87731485D01*
X132791247Y-84839663D02*
X132791247Y-83839663D01*
X132791247Y-83839663D02*
X132553152Y-83839663D01*
X132553152Y-83839663D02*
X132410295Y-83887282D01*
X132410295Y-83887282D02*
X132315057Y-83982520D01*
X132315057Y-83982520D02*
X132267438Y-84077758D01*
X132267438Y-84077758D02*
X132219819Y-84268234D01*
X132219819Y-84268234D02*
X132219819Y-84411091D01*
X132219819Y-84411091D02*
X132267438Y-84601567D01*
X132267438Y-84601567D02*
X132315057Y-84696805D01*
X132315057Y-84696805D02*
X132410295Y-84792044D01*
X132410295Y-84792044D02*
X132553152Y-84839663D01*
X132553152Y-84839663D02*
X132791247Y-84839663D01*
X131600771Y-83839663D02*
X131505533Y-83839663D01*
X131505533Y-83839663D02*
X131410295Y-83887282D01*
X131410295Y-83887282D02*
X131362676Y-83934901D01*
X131362676Y-83934901D02*
X131315057Y-84030139D01*
X131315057Y-84030139D02*
X131267438Y-84220615D01*
X131267438Y-84220615D02*
X131267438Y-84458710D01*
X131267438Y-84458710D02*
X131315057Y-84649186D01*
X131315057Y-84649186D02*
X131362676Y-84744424D01*
X131362676Y-84744424D02*
X131410295Y-84792044D01*
X131410295Y-84792044D02*
X131505533Y-84839663D01*
X131505533Y-84839663D02*
X131600771Y-84839663D01*
X131600771Y-84839663D02*
X131696009Y-84792044D01*
X131696009Y-84792044D02*
X131743628Y-84744424D01*
X131743628Y-84744424D02*
X131791247Y-84649186D01*
X131791247Y-84649186D02*
X131838866Y-84458710D01*
X131838866Y-84458710D02*
X131838866Y-84220615D01*
X131838866Y-84220615D02*
X131791247Y-84030139D01*
X131791247Y-84030139D02*
X131743628Y-83934901D01*
X131743628Y-83934901D02*
X131696009Y-83887282D01*
X131696009Y-83887282D02*
X131600771Y-83839663D01*
X134910336Y-96999104D02*
X133910336Y-96665771D01*
X133910336Y-96665771D02*
X134910336Y-96332438D01*
X133910336Y-95999104D02*
X134910336Y-95999104D01*
X133910336Y-95522914D02*
X134910336Y-95522914D01*
X134910336Y-95522914D02*
X133910336Y-94951486D01*
X133910336Y-94951486D02*
X134910336Y-94951486D01*
X121480336Y-85561247D02*
X122480336Y-85561247D01*
X122480336Y-85561247D02*
X122480336Y-85323152D01*
X122480336Y-85323152D02*
X122432717Y-85180295D01*
X122432717Y-85180295D02*
X122337479Y-85085057D01*
X122337479Y-85085057D02*
X122242241Y-85037438D01*
X122242241Y-85037438D02*
X122051765Y-84989819D01*
X122051765Y-84989819D02*
X121908908Y-84989819D01*
X121908908Y-84989819D02*
X121718432Y-85037438D01*
X121718432Y-85037438D02*
X121623194Y-85085057D01*
X121623194Y-85085057D02*
X121527956Y-85180295D01*
X121527956Y-85180295D02*
X121480336Y-85323152D01*
X121480336Y-85323152D02*
X121480336Y-85561247D01*
X122480336Y-84656485D02*
X122480336Y-84037438D01*
X122480336Y-84037438D02*
X122099384Y-84370771D01*
X122099384Y-84370771D02*
X122099384Y-84227914D01*
X122099384Y-84227914D02*
X122051765Y-84132676D01*
X122051765Y-84132676D02*
X122004146Y-84085057D01*
X122004146Y-84085057D02*
X121908908Y-84037438D01*
X121908908Y-84037438D02*
X121670813Y-84037438D01*
X121670813Y-84037438D02*
X121575575Y-84085057D01*
X121575575Y-84085057D02*
X121527956Y-84132676D01*
X121527956Y-84132676D02*
X121480336Y-84227914D01*
X121480336Y-84227914D02*
X121480336Y-84513628D01*
X121480336Y-84513628D02*
X121527956Y-84608866D01*
X121527956Y-84608866D02*
X121575575Y-84656485D01*
X113710336Y-85681247D02*
X114710336Y-85681247D01*
X114710336Y-85681247D02*
X114710336Y-85443152D01*
X114710336Y-85443152D02*
X114662717Y-85300295D01*
X114662717Y-85300295D02*
X114567479Y-85205057D01*
X114567479Y-85205057D02*
X114472241Y-85157438D01*
X114472241Y-85157438D02*
X114281765Y-85109819D01*
X114281765Y-85109819D02*
X114138908Y-85109819D01*
X114138908Y-85109819D02*
X113948432Y-85157438D01*
X113948432Y-85157438D02*
X113853194Y-85205057D01*
X113853194Y-85205057D02*
X113757956Y-85300295D01*
X113757956Y-85300295D02*
X113710336Y-85443152D01*
X113710336Y-85443152D02*
X113710336Y-85681247D01*
X114710336Y-84252676D02*
X114710336Y-84443152D01*
X114710336Y-84443152D02*
X114662717Y-84538390D01*
X114662717Y-84538390D02*
X114615098Y-84586009D01*
X114615098Y-84586009D02*
X114472241Y-84681247D01*
X114472241Y-84681247D02*
X114281765Y-84728866D01*
X114281765Y-84728866D02*
X113900813Y-84728866D01*
X113900813Y-84728866D02*
X113805575Y-84681247D01*
X113805575Y-84681247D02*
X113757956Y-84633628D01*
X113757956Y-84633628D02*
X113710336Y-84538390D01*
X113710336Y-84538390D02*
X113710336Y-84347914D01*
X113710336Y-84347914D02*
X113757956Y-84252676D01*
X113757956Y-84252676D02*
X113805575Y-84205057D01*
X113805575Y-84205057D02*
X113900813Y-84157438D01*
X113900813Y-84157438D02*
X114138908Y-84157438D01*
X114138908Y-84157438D02*
X114234146Y-84205057D01*
X114234146Y-84205057D02*
X114281765Y-84252676D01*
X114281765Y-84252676D02*
X114329384Y-84347914D01*
X114329384Y-84347914D02*
X114329384Y-84538390D01*
X114329384Y-84538390D02*
X114281765Y-84633628D01*
X114281765Y-84633628D02*
X114234146Y-84681247D01*
X114234146Y-84681247D02*
X114138908Y-84728866D01*
X121691051Y-97033866D02*
X121691051Y-96557676D01*
X121405336Y-97129104D02*
X122405336Y-96795771D01*
X122405336Y-96795771D02*
X121405336Y-96462438D01*
X122310098Y-96176723D02*
X122357717Y-96129104D01*
X122357717Y-96129104D02*
X122405336Y-96033866D01*
X122405336Y-96033866D02*
X122405336Y-95795771D01*
X122405336Y-95795771D02*
X122357717Y-95700533D01*
X122357717Y-95700533D02*
X122310098Y-95652914D01*
X122310098Y-95652914D02*
X122214860Y-95605295D01*
X122214860Y-95605295D02*
X122119622Y-95605295D01*
X122119622Y-95605295D02*
X121976765Y-95652914D01*
X121976765Y-95652914D02*
X121405336Y-96224342D01*
X121405336Y-96224342D02*
X121405336Y-95605295D01*
X118660336Y-85481247D02*
X119660336Y-85481247D01*
X119660336Y-85481247D02*
X119660336Y-85243152D01*
X119660336Y-85243152D02*
X119612717Y-85100295D01*
X119612717Y-85100295D02*
X119517479Y-85005057D01*
X119517479Y-85005057D02*
X119422241Y-84957438D01*
X119422241Y-84957438D02*
X119231765Y-84909819D01*
X119231765Y-84909819D02*
X119088908Y-84909819D01*
X119088908Y-84909819D02*
X118898432Y-84957438D01*
X118898432Y-84957438D02*
X118803194Y-85005057D01*
X118803194Y-85005057D02*
X118707956Y-85100295D01*
X118707956Y-85100295D02*
X118660336Y-85243152D01*
X118660336Y-85243152D02*
X118660336Y-85481247D01*
X119327003Y-84052676D02*
X118660336Y-84052676D01*
X119707956Y-84290771D02*
X118993670Y-84528866D01*
X118993670Y-84528866D02*
X118993670Y-83909819D01*
X126230336Y-89661247D02*
X127230336Y-89661247D01*
X127230336Y-89661247D02*
X127230336Y-89423152D01*
X127230336Y-89423152D02*
X127182717Y-89280295D01*
X127182717Y-89280295D02*
X127087479Y-89185057D01*
X127087479Y-89185057D02*
X126992241Y-89137438D01*
X126992241Y-89137438D02*
X126801765Y-89089819D01*
X126801765Y-89089819D02*
X126658908Y-89089819D01*
X126658908Y-89089819D02*
X126468432Y-89137438D01*
X126468432Y-89137438D02*
X126373194Y-89185057D01*
X126373194Y-89185057D02*
X126277956Y-89280295D01*
X126277956Y-89280295D02*
X126230336Y-89423152D01*
X126230336Y-89423152D02*
X126230336Y-89661247D01*
X126230336Y-88137438D02*
X126230336Y-88708866D01*
X126230336Y-88423152D02*
X127230336Y-88423152D01*
X127230336Y-88423152D02*
X127087479Y-88518390D01*
X127087479Y-88518390D02*
X126992241Y-88613628D01*
X126992241Y-88613628D02*
X126944622Y-88708866D01*
X127135098Y-87756485D02*
X127182717Y-87708866D01*
X127182717Y-87708866D02*
X127230336Y-87613628D01*
X127230336Y-87613628D02*
X127230336Y-87375533D01*
X127230336Y-87375533D02*
X127182717Y-87280295D01*
X127182717Y-87280295D02*
X127135098Y-87232676D01*
X127135098Y-87232676D02*
X127039860Y-87185057D01*
X127039860Y-87185057D02*
X126944622Y-87185057D01*
X126944622Y-87185057D02*
X126801765Y-87232676D01*
X126801765Y-87232676D02*
X126230336Y-87804104D01*
X126230336Y-87804104D02*
X126230336Y-87185057D01*
X134880336Y-85636247D02*
X135880336Y-85636247D01*
X135880336Y-85636247D02*
X135880336Y-85398152D01*
X135880336Y-85398152D02*
X135832717Y-85255295D01*
X135832717Y-85255295D02*
X135737479Y-85160057D01*
X135737479Y-85160057D02*
X135642241Y-85112438D01*
X135642241Y-85112438D02*
X135451765Y-85064819D01*
X135451765Y-85064819D02*
X135308908Y-85064819D01*
X135308908Y-85064819D02*
X135118432Y-85112438D01*
X135118432Y-85112438D02*
X135023194Y-85160057D01*
X135023194Y-85160057D02*
X134927956Y-85255295D01*
X134927956Y-85255295D02*
X134880336Y-85398152D01*
X134880336Y-85398152D02*
X134880336Y-85636247D01*
X134880336Y-84112438D02*
X134880336Y-84683866D01*
X134880336Y-84398152D02*
X135880336Y-84398152D01*
X135880336Y-84398152D02*
X135737479Y-84493390D01*
X135737479Y-84493390D02*
X135642241Y-84588628D01*
X135642241Y-84588628D02*
X135594622Y-84683866D01*
X118440280Y-92098808D02*
X117440280Y-91765475D01*
X117440280Y-91765475D02*
X118440280Y-91432142D01*
X117440280Y-90574999D02*
X117440280Y-91146427D01*
X117440280Y-90860713D02*
X118440280Y-90860713D01*
X118440280Y-90860713D02*
X118297423Y-90955951D01*
X118297423Y-90955951D02*
X118202185Y-91051189D01*
X118202185Y-91051189D02*
X118154566Y-91146427D01*
X117535519Y-90146427D02*
X117487900Y-90098808D01*
X117487900Y-90098808D02*
X117440280Y-90146427D01*
X117440280Y-90146427D02*
X117487900Y-90194046D01*
X117487900Y-90194046D02*
X117535519Y-90146427D01*
X117535519Y-90146427D02*
X117440280Y-90146427D01*
X118440280Y-89479761D02*
X118440280Y-89384523D01*
X118440280Y-89384523D02*
X118392661Y-89289285D01*
X118392661Y-89289285D02*
X118345042Y-89241666D01*
X118345042Y-89241666D02*
X118249804Y-89194047D01*
X118249804Y-89194047D02*
X118059328Y-89146428D01*
X118059328Y-89146428D02*
X117821233Y-89146428D01*
X117821233Y-89146428D02*
X117630757Y-89194047D01*
X117630757Y-89194047D02*
X117535519Y-89241666D01*
X117535519Y-89241666D02*
X117487900Y-89289285D01*
X117487900Y-89289285D02*
X117440280Y-89384523D01*
X117440280Y-89384523D02*
X117440280Y-89479761D01*
X117440280Y-89479761D02*
X117487900Y-89574999D01*
X117487900Y-89574999D02*
X117535519Y-89622618D01*
X117535519Y-89622618D02*
X117630757Y-89670237D01*
X117630757Y-89670237D02*
X117821233Y-89717856D01*
X117821233Y-89717856D02*
X118059328Y-89717856D01*
X118059328Y-89717856D02*
X118249804Y-89670237D01*
X118249804Y-89670237D02*
X118345042Y-89622618D01*
X118345042Y-89622618D02*
X118392661Y-89574999D01*
X118392661Y-89574999D02*
X118440280Y-89479761D01*
X116830336Y-92574999D02*
X116830336Y-92479761D01*
X116830336Y-92479761D02*
X116782717Y-92384523D01*
X116782717Y-92384523D02*
X116735098Y-92336904D01*
X116735098Y-92336904D02*
X116639860Y-92289285D01*
X116639860Y-92289285D02*
X116449384Y-92241666D01*
X116449384Y-92241666D02*
X116211289Y-92241666D01*
X116211289Y-92241666D02*
X116020813Y-92289285D01*
X116020813Y-92289285D02*
X115925575Y-92336904D01*
X115925575Y-92336904D02*
X115877956Y-92384523D01*
X115877956Y-92384523D02*
X115830336Y-92479761D01*
X115830336Y-92479761D02*
X115830336Y-92574999D01*
X115830336Y-92574999D02*
X115877956Y-92670237D01*
X115877956Y-92670237D02*
X115925575Y-92717856D01*
X115925575Y-92717856D02*
X116020813Y-92765475D01*
X116020813Y-92765475D02*
X116211289Y-92813094D01*
X116211289Y-92813094D02*
X116449384Y-92813094D01*
X116449384Y-92813094D02*
X116639860Y-92765475D01*
X116639860Y-92765475D02*
X116735098Y-92717856D01*
X116735098Y-92717856D02*
X116782717Y-92670237D01*
X116782717Y-92670237D02*
X116830336Y-92574999D01*
X115830336Y-91289285D02*
X115830336Y-91860713D01*
X115830336Y-91574999D02*
X116830336Y-91574999D01*
X116830336Y-91574999D02*
X116687479Y-91670237D01*
X116687479Y-91670237D02*
X116592241Y-91765475D01*
X116592241Y-91765475D02*
X116544622Y-91860713D01*
X116877956Y-90146428D02*
X115592241Y-91003570D01*
X116735098Y-89860713D02*
X116782717Y-89813094D01*
X116782717Y-89813094D02*
X116830336Y-89717856D01*
X116830336Y-89717856D02*
X116830336Y-89479761D01*
X116830336Y-89479761D02*
X116782717Y-89384523D01*
X116782717Y-89384523D02*
X116735098Y-89336904D01*
X116735098Y-89336904D02*
X116639860Y-89289285D01*
X116639860Y-89289285D02*
X116544622Y-89289285D01*
X116544622Y-89289285D02*
X116401765Y-89336904D01*
X116401765Y-89336904D02*
X115830336Y-89908332D01*
X115830336Y-89908332D02*
X115830336Y-89289285D01*
X116830336Y-88384523D02*
X116830336Y-88860713D01*
X116830336Y-88860713D02*
X116354146Y-88908332D01*
X116354146Y-88908332D02*
X116401765Y-88860713D01*
X116401765Y-88860713D02*
X116449384Y-88765475D01*
X116449384Y-88765475D02*
X116449384Y-88527380D01*
X116449384Y-88527380D02*
X116401765Y-88432142D01*
X116401765Y-88432142D02*
X116354146Y-88384523D01*
X116354146Y-88384523D02*
X116258908Y-88336904D01*
X116258908Y-88336904D02*
X116020813Y-88336904D01*
X116020813Y-88336904D02*
X115925575Y-88384523D01*
X115925575Y-88384523D02*
X115877956Y-88432142D01*
X115877956Y-88432142D02*
X115830336Y-88527380D01*
X115830336Y-88527380D02*
X115830336Y-88765475D01*
X115830336Y-88765475D02*
X115877956Y-88860713D01*
X115877956Y-88860713D02*
X115925575Y-88908332D01*
X128226485Y-95929663D02*
X127607438Y-95929663D01*
X127607438Y-95929663D02*
X127940771Y-96310615D01*
X127940771Y-96310615D02*
X127797914Y-96310615D01*
X127797914Y-96310615D02*
X127702676Y-96358234D01*
X127702676Y-96358234D02*
X127655057Y-96405853D01*
X127655057Y-96405853D02*
X127607438Y-96501091D01*
X127607438Y-96501091D02*
X127607438Y-96739186D01*
X127607438Y-96739186D02*
X127655057Y-96834424D01*
X127655057Y-96834424D02*
X127702676Y-96882044D01*
X127702676Y-96882044D02*
X127797914Y-96929663D01*
X127797914Y-96929663D02*
X128083628Y-96929663D01*
X128083628Y-96929663D02*
X128178866Y-96882044D01*
X128178866Y-96882044D02*
X128226485Y-96834424D01*
X127178866Y-96834424D02*
X127131247Y-96882044D01*
X127131247Y-96882044D02*
X127178866Y-96929663D01*
X127178866Y-96929663D02*
X127226485Y-96882044D01*
X127226485Y-96882044D02*
X127178866Y-96834424D01*
X127178866Y-96834424D02*
X127178866Y-96929663D01*
X126797914Y-95929663D02*
X126178867Y-95929663D01*
X126178867Y-95929663D02*
X126512200Y-96310615D01*
X126512200Y-96310615D02*
X126369343Y-96310615D01*
X126369343Y-96310615D02*
X126274105Y-96358234D01*
X126274105Y-96358234D02*
X126226486Y-96405853D01*
X126226486Y-96405853D02*
X126178867Y-96501091D01*
X126178867Y-96501091D02*
X126178867Y-96739186D01*
X126178867Y-96739186D02*
X126226486Y-96834424D01*
X126226486Y-96834424D02*
X126274105Y-96882044D01*
X126274105Y-96882044D02*
X126369343Y-96929663D01*
X126369343Y-96929663D02*
X126655057Y-96929663D01*
X126655057Y-96929663D02*
X126750295Y-96882044D01*
X126750295Y-96882044D02*
X126797914Y-96834424D01*
X125893152Y-95929663D02*
X125559819Y-96929663D01*
X125559819Y-96929663D02*
X125226486Y-95929663D01*
D11*
%TO.C,J6*%
X108600000Y-87970000D02*
X110000000Y-87970000D01*
X108600000Y-89370000D02*
X108600000Y-87970000D01*
X110000000Y-87970000D02*
X110000000Y-89370000D01*
X110000000Y-89370000D02*
X108600000Y-89370000D01*
%TO.C,R5*%
X122652064Y-85790000D02*
X122197936Y-85790000D01*
X122652064Y-87260000D02*
X122197936Y-87260000D01*
%TO.C,J12*%
X121125000Y-94050000D02*
X122525000Y-94050000D01*
X121125000Y-95450000D02*
X121125000Y-94050000D01*
X122525000Y-94050000D02*
X122525000Y-95450000D01*
X122525000Y-95450000D02*
X121125000Y-95450000D01*
%TO.C,JP1*%
X130400000Y-86277500D02*
X130400000Y-85677500D01*
X131050000Y-84977500D02*
X133850000Y-84977500D01*
X133350000Y-87477500D02*
X133650000Y-87177500D01*
X133350000Y-87477500D02*
X133950000Y-87477500D01*
X133850000Y-86977500D02*
X131050000Y-86977500D01*
X133950000Y-87477500D02*
X133650000Y-87177500D01*
X134500000Y-85677500D02*
X134500000Y-86277500D01*
X130400000Y-85677500D02*
G75*
G02*
X131100000Y-84977500I700000J0D01*
G01*
X131100000Y-86977500D02*
G75*
G02*
X130400000Y-86277500I0J700000D01*
G01*
X133800000Y-84977500D02*
G75*
G02*
X134500000Y-85677500I1J-699999D01*
G01*
X134500000Y-86277500D02*
G75*
G02*
X133800000Y-86977500I-699999J-1D01*
G01*
%TO.C,JP2*%
X125690000Y-86300000D02*
X125690000Y-85700000D01*
X126340000Y-85000000D02*
X129140000Y-85000000D01*
X128640000Y-87500000D02*
X128940000Y-87200000D01*
X128640000Y-87500000D02*
X129240000Y-87500000D01*
X129140000Y-87000000D02*
X126340000Y-87000000D01*
X129240000Y-87500000D02*
X128940000Y-87200000D01*
X129790000Y-85700000D02*
X129790000Y-86300000D01*
X125690000Y-85700000D02*
G75*
G02*
X126390000Y-85000000I700000J0D01*
G01*
X126390000Y-87000000D02*
G75*
G02*
X125690000Y-86300000I0J700000D01*
G01*
X129090000Y-85000000D02*
G75*
G02*
X129790000Y-85700000I1J-699999D01*
G01*
X129790000Y-86300000D02*
G75*
G02*
X129090000Y-87000000I-699999J-1D01*
G01*
%TO.C,J5*%
X105825000Y-90095000D02*
X107225000Y-90095000D01*
X105825000Y-91495000D02*
X105825000Y-90095000D01*
X107225000Y-90095000D02*
X107225000Y-91495000D01*
X107225000Y-91495000D02*
X105825000Y-91495000D01*
%TO.C,J16*%
X129435000Y-94050000D02*
X130835000Y-94050000D01*
X129435000Y-95450000D02*
X129435000Y-94050000D01*
X130835000Y-94050000D02*
X130835000Y-95450000D01*
X130835000Y-95450000D02*
X129435000Y-95450000D01*
%TO.C,J3*%
X108600000Y-90050000D02*
X110000000Y-90050000D01*
X108600000Y-91450000D02*
X108600000Y-90050000D01*
X110000000Y-90050000D02*
X110000000Y-91450000D01*
X110000000Y-91450000D02*
X108600000Y-91450000D01*
%TO.C,J15*%
X127360000Y-94050000D02*
X128760000Y-94050000D01*
X127360000Y-95450000D02*
X127360000Y-94050000D01*
X128760000Y-94050000D02*
X128760000Y-95450000D01*
X128760000Y-95450000D02*
X127360000Y-95450000D01*
%TO.C,J13*%
X123210000Y-94050000D02*
X124610000Y-94050000D01*
X123210000Y-95450000D02*
X123210000Y-94050000D01*
X124610000Y-94050000D02*
X124610000Y-95450000D01*
X124610000Y-95450000D02*
X123210000Y-95450000D01*
%TO.C,J14*%
X125285000Y-94050000D02*
X126685000Y-94050000D01*
X125285000Y-95450000D02*
X125285000Y-94050000D01*
X126685000Y-94050000D02*
X126685000Y-95450000D01*
X126685000Y-95450000D02*
X125285000Y-95450000D01*
%TO.C,J4*%
X105825000Y-88020000D02*
X107225000Y-88020000D01*
X105825000Y-89420000D02*
X105825000Y-88020000D01*
X107225000Y-88020000D02*
X107225000Y-89420000D01*
X107225000Y-89420000D02*
X105825000Y-89420000D01*
%TD*%
%LPC*%
D12*
%TO.C,U5*%
X134650000Y-83000000D03*
D13*
X132110000Y-83000000D03*
X129570000Y-83000000D03*
X127030000Y-83000000D03*
X124490000Y-83000000D03*
X121950000Y-83000000D03*
X119410000Y-83000000D03*
X116870000Y-83000000D03*
X114330000Y-83000000D03*
X111790000Y-83000000D03*
X109250000Y-83000000D03*
X106710000Y-83000000D03*
X106710000Y-98240000D03*
X109250000Y-98240000D03*
X111790000Y-98240000D03*
X114330000Y-98240000D03*
X116870000Y-98240000D03*
X119410000Y-98240000D03*
X121950000Y-98240000D03*
X124490000Y-98240000D03*
X127030000Y-98240000D03*
X129570000Y-98240000D03*
X132110000Y-98240000D03*
X134650000Y-98240000D03*
%TD*%
D14*
%TO.C,J6*%
X109300000Y-88670000D03*
%TD*%
D15*
%TO.C,R5*%
X121425000Y-86525000D03*
X123425000Y-86525000D03*
%TD*%
D14*
%TO.C,J12*%
X121825000Y-94750000D03*
%TD*%
D16*
%TO.C,JP1*%
X133750000Y-85977500D03*
D17*
X132450000Y-85977500D03*
D18*
X131150000Y-85977500D03*
%TD*%
D16*
%TO.C,JP2*%
X129040000Y-86000000D03*
D17*
X127740000Y-86000000D03*
D18*
X126440000Y-86000000D03*
%TD*%
D14*
%TO.C,J5*%
X106525000Y-90795000D03*
%TD*%
%TO.C,J16*%
X130135000Y-94750000D03*
%TD*%
%TO.C,J3*%
X109300000Y-90750000D03*
%TD*%
%TO.C,J15*%
X128060000Y-94750000D03*
%TD*%
%TO.C,J13*%
X123910000Y-94750000D03*
%TD*%
%TO.C,J14*%
X125985000Y-94750000D03*
%TD*%
%TO.C,J4*%
X106525000Y-88720000D03*
%TD*%
%LPD*%
M02*
