%TF.GenerationSoftware,KiCad,Pcbnew,8.0.7*%
%TF.CreationDate,2025-01-16T05:51:54+01:00*%
%TF.ProjectId,RP2040Micro,52503230-3430-44d6-9963-726f2e6b6963,rev?*%
%TF.SameCoordinates,Original*%
%TF.FileFunction,Soldermask,Bot*%
%TF.FilePolarity,Negative*%
%FSLAX46Y46*%
G04 Gerber Fmt 4.6, Leading zero omitted, Abs format (unit mm)*
G04 Created by KiCad (PCBNEW 8.0.7) date 2025-01-16 05:51:54*
%MOMM*%
%LPD*%
G01*
G04 APERTURE LIST*
G04 Aperture macros list*
%AMRoundRect*
0 Rectangle with rounded corners*
0 $1 Rounding radius*
0 $2 $3 $4 $5 $6 $7 $8 $9 X,Y pos of 4 corners*
0 Add a 4 corners polygon primitive as box body*
4,1,4,$2,$3,$4,$5,$6,$7,$8,$9,$2,$3,0*
0 Add four circle primitives for the rounded corners*
1,1,$1+$1,$2,$3*
1,1,$1+$1,$4,$5*
1,1,$1+$1,$6,$7*
1,1,$1+$1,$8,$9*
0 Add four rect primitives between the rounded corners*
20,1,$1+$1,$2,$3,$4,$5,0*
20,1,$1+$1,$4,$5,$6,$7,0*
20,1,$1+$1,$6,$7,$8,$9,0*
20,1,$1+$1,$8,$9,$2,$3,0*%
%AMFreePoly0*
4,1,19,0.550000,-0.750000,0.000000,-0.750000,0.000000,-0.744911,-0.071157,-0.744911,-0.207708,-0.704816,-0.327430,-0.627875,-0.420627,-0.520320,-0.479746,-0.390866,-0.500000,-0.250000,-0.500000,0.250000,-0.479746,0.390866,-0.420627,0.520320,-0.327430,0.627875,-0.207708,0.704816,-0.071157,0.744911,0.000000,0.744911,0.000000,0.750000,0.550000,0.750000,0.550000,-0.750000,0.550000,-0.750000,
$1*%
%AMFreePoly1*
4,1,19,0.000000,0.744911,0.071157,0.744911,0.207708,0.704816,0.327430,0.627875,0.420627,0.520320,0.479746,0.390866,0.500000,0.250000,0.500000,-0.250000,0.479746,-0.390866,0.420627,-0.520320,0.327430,-0.627875,0.207708,-0.704816,0.071157,-0.744911,0.000000,-0.744911,0.000000,-0.750000,-0.550000,-0.750000,-0.550000,0.750000,0.000000,0.750000,0.000000,0.744911,0.000000,0.744911,
$1*%
G04 Aperture macros list end*
%ADD10RoundRect,0.102000X-0.787400X0.787400X-0.787400X-0.787400X0.787400X-0.787400X0.787400X0.787400X0*%
%ADD11C,1.778800*%
%ADD12R,1.000000X1.000000*%
%ADD13RoundRect,0.250000X-0.350000X-0.450000X0.350000X-0.450000X0.350000X0.450000X-0.350000X0.450000X0*%
%ADD14FreePoly0,180.000000*%
%ADD15R,1.000000X1.500000*%
%ADD16FreePoly1,180.000000*%
G04 APERTURE END LIST*
D10*
%TO.C,U5*%
X134650000Y-83000000D03*
D11*
X132110000Y-83000000D03*
X129570000Y-83000000D03*
X127030000Y-83000000D03*
X124490000Y-83000000D03*
X121950000Y-83000000D03*
X119410000Y-83000000D03*
X116870000Y-83000000D03*
X114330000Y-83000000D03*
X111790000Y-83000000D03*
X109250000Y-83000000D03*
X106710000Y-83000000D03*
X106710000Y-98240000D03*
X109250000Y-98240000D03*
X111790000Y-98240000D03*
X114330000Y-98240000D03*
X116870000Y-98240000D03*
X119410000Y-98240000D03*
X121950000Y-98240000D03*
X124490000Y-98240000D03*
X127030000Y-98240000D03*
X129570000Y-98240000D03*
X132110000Y-98240000D03*
X134650000Y-98240000D03*
%TD*%
D12*
%TO.C,J6*%
X109300000Y-88670000D03*
%TD*%
D13*
%TO.C,R5*%
X121425000Y-86525000D03*
X123425000Y-86525000D03*
%TD*%
D12*
%TO.C,J12*%
X121825000Y-94750000D03*
%TD*%
D14*
%TO.C,JP1*%
X133750000Y-85977500D03*
D15*
X132450000Y-85977500D03*
D16*
X131150000Y-85977500D03*
%TD*%
D14*
%TO.C,JP2*%
X129040000Y-86000000D03*
D15*
X127740000Y-86000000D03*
D16*
X126440000Y-86000000D03*
%TD*%
D12*
%TO.C,J5*%
X106525000Y-90795000D03*
%TD*%
%TO.C,J16*%
X130135000Y-94750000D03*
%TD*%
%TO.C,J3*%
X109300000Y-90750000D03*
%TD*%
%TO.C,J15*%
X128060000Y-94750000D03*
%TD*%
%TO.C,J13*%
X123910000Y-94750000D03*
%TD*%
%TO.C,J14*%
X125985000Y-94750000D03*
%TD*%
%TO.C,J4*%
X106525000Y-88720000D03*
%TD*%
M02*
