M48
; DRILL file {KiCad 8.0.7} date 2025-01-16T05:51:55+0100
; FORMAT={-:-/ absolute / inch / decimal}
; #@! TF.CreationDate,2025-01-16T05:51:55+01:00
; #@! TF.GenerationSoftware,Kicad,Pcbnew,8.0.7
; #@! TF.FileFunction,Plated,1,2,PTH
FMAT,2
INCH
; #@! TA.AperFunction,Plated,PTH,ViaDrill
T1C0.0118
; #@! TA.AperFunction,Plated,PTH,ViaDrill
T2C0.0138
; #@! TA.AperFunction,Plated,PTH,ComponentDrill
T3C0.0360
%
G90
G05
T1
X4.2016Y-3.3469
X4.2047Y-3.6622
X4.2055Y-3.7654
X4.2126Y-3.4144
X4.2563Y-3.4799
X4.2589Y-3.5475
X4.2687Y-3.7283
X4.2982Y-3.6407
X4.311Y-3.4183
X4.314Y-3.625
X4.3165Y-3.3331
X4.3191Y-3.6565
X4.3268Y-3.6969
X4.3317Y-3.8012
X4.3376Y-3.6033
X4.3598Y-3.7654
X4.3947Y-3.4163
X4.3947Y-3.6663
X4.411Y-3.3303
X4.4213Y-3.3858
X4.436Y-3.501
X4.4417Y-3.4006
X4.4419Y-3.4636
X4.451Y-3.5175
X4.483Y-3.3241
X4.4833Y-3.4331
X4.5089Y-3.7392
X4.5266Y-3.7541
X4.5437Y-3.7694
X4.5815Y-3.5345
X4.5815Y-3.5955
X4.59Y-3.7589
X4.6043Y-3.3563
X4.6043Y-3.7766
X4.612Y-3.565
X4.6425Y-3.5345
X4.6425Y-3.5955
X4.7622Y-3.828
X4.7638Y-3.3622
X4.7867Y-3.4954
X4.7992Y-3.5131
X4.815Y-3.4961
X4.8179Y-3.8199
X4.8189Y-3.4242
X4.8386Y-3.7307
X4.8652Y-3.3583
X4.9067Y-3.5343
X4.9161Y-3.3594
X4.9232Y-3.5012
X4.9252Y-3.4587
X4.9301Y-3.4803
X4.9535Y-3.313
X4.9636Y-3.5856
X4.9748Y-3.5587
X5.0118Y-3.8081
X5.0335Y-3.4478
X5.065Y-3.8071
X5.0831Y-3.7726
X5.1276Y-3.3445
X5.1319Y-3.4449
X5.1329Y-3.5177
X5.1398Y-3.686
X5.14Y-3.5559
X5.1451Y-3.6002
X5.1628Y-3.313
X5.185Y-3.313
X5.2077Y-3.7687
X5.2476Y-3.5169
X5.2484Y-3.6362
X5.3022Y-3.3406
X5.3091Y-3.8031
T2
X4.4675Y-3.7343
X4.4823Y-3.7628
X4.5134Y-3.5725
X4.5187Y-3.4724
X4.5187Y-3.5236
X4.5522Y-3.8356
X4.5726Y-3.4598
X4.575Y-3.668
X4.626Y-3.815
X4.7065Y-3.4637
X4.7776Y-3.6831
X4.8236Y-3.5807
X4.862Y-3.6201
X4.862Y-3.6594
X4.9256Y-3.5591
X4.9256Y-3.5925
X4.9455Y-3.5392
T3
X4.2012Y-3.2677
X4.2012Y-3.8677
X4.3012Y-3.2677
X4.3012Y-3.8677
X4.4012Y-3.2677
X4.4012Y-3.8677
X4.5012Y-3.2677
X4.5012Y-3.8677
X4.6012Y-3.2677
X4.6012Y-3.8677
X4.7012Y-3.2677
X4.7012Y-3.8677
X4.8012Y-3.2677
X4.8012Y-3.8677
X4.9012Y-3.2677
X4.9012Y-3.8677
X5.0012Y-3.2677
X5.0012Y-3.8677
X5.1012Y-3.2677
X5.1012Y-3.8677
X5.2012Y-3.2677
X5.2012Y-3.8677
X5.3012Y-3.2677
X5.3012Y-3.8677
M30
